<ttFont>
<head>
    <!-- Most of this table will be recalculated by the compiler -->
    <tableVersion value="1.0"/>
    <fontRevision value="1.0"/>
    <checkSumAdjustment value="0xcfb727ca"/>
    <magicNumber value="0x5f0f3cf5"/>
    <flags value="00000000 00000011"/>
    <unitsPerEm value="1000"/>
    <created value="Wed Jul 15 21:01:27 2015"/>
    <modified value="Thu Jul 16 15:34:21 2015"/>
    <xMin value="-321"/>
    <yMin value="-289"/>
    <xMax value="1174"/>
    <yMax value="860"/>
    <macStyle value="00000000 00000000"/>
    <lowestRecPPEM value="3"/>
    <fontDirectionHint value="2"/>
    <indexToLocFormat value="0"/>
    <glyphDataFormat value="0"/>
  </head>
          <CharString index="0">
            16 11 6 16 15 vvcurveto
            30 -25 30 -31 -10 -10 -3 -8 -11 vhcurveto
            -34 -25 -21 -46 -80 -69 return
          </CharString>
          <CharString index="1">
            -102 callgsubr
            -440 222 -39 callgsubr
          </CharString>
          <CharString index="2">
            rmoveto
            49 17 51 88 84 hvcurveto
            -15 20 -48 -27 -53 -23 -34 -13 rlinecurve
            -85 callsubr
            return
          </CharString>
          <CharString index="3">
            -98 callsubr
            88 70 37 79 27 vhcurveto
            -25 5 rlineto
            return
          </CharString>
          <CharString index="4">
            -106 callgsubr
            endchar
          </CharString>
          <CharString index="5">
            rmoveto
            36 31 29 37 -64 callsubr
            hvcurveto
            185 hmoveto
            -82 callgsubr
            return
          </CharString>
          <CharString index="6">
            -209 -27 97 -345 hlineto
            -150 -61 -58 -100 -87 -43 63 145 vhcurveto
            345 -10 callsubr
            -353 vlineto
            -166 98 -64 155 155 64 79 165 vhcurveto
            339 75 vlineto
            return
          </CharString>
          <CharString index="7">
            rmoveto
            -3 callgsubr
            -78 callsubr
            vhcurveto
            -162 5 rmoveto
            19 callsubr
            -54 callgsubr
            vhcurveto
            endchar
          </CharString>
          <CharString index="8">
            -95 callgsubr
            -32 callsubr
            return
          </CharString>
          <CharString index="9">
            -65 -41 54 150 -2 hvcurveto
            87 -3 rlineto
            140 -4 53 24 60 vvcurveto
            93 -88 52 -108 -121 -105 -75 -151 -160 108 -69 119 return
          </CharString>
          <CharString index="10">
            -100 callgsubr
            endchar
          </CharString>
          <CharString index="11">
            -99 callsubr
            endchar
          </CharString>
          <CharString index="12">
            rmoveto
            -96 callgsubr
          </CharString>
          <CharString index="13">
            -19 callgsubr
            -96 callsubr
          </CharString>
          <CharString index="14">
            rlineto
            -64 -27 184 -73 callgsubr
            -56 hlineto
            72 192 rlineto
            63 callsubr
            75 -192 rlineto
            -71 -27 return
          </CharString>
          <CharString index="15">
            rmoveto
            -3 callsubr
            14 19 rcurveline
            -84 callgsubr
            return
          </CharString>
          <CharString index="16">
            14 -10 rlineto
            12 17 16 6 15 hhcurveto
            23 17 -18 -39 -44 -20 -21 -26 -20 -25 13 25 -20 hvcurveto
            -16 -14 rlineto
            -32 23 41 -21 48 hhcurveto
            85 42 47 46 44 -38 42 -78 return
          </CharString>
          <CharString index="17">
            -91 callsubr
            -19 -20 -4 -7 -17 hvcurveto
            return
          </CharString>
          <CharString index="18">
            -286 -61 -87 callsubr
          </CharString>
          <CharString index="19">
            267 190 30 -190 249 106 hlineto
            -60 callsubr
            return
          </CharString>
          <CharString index="20">
            rmoveto
            -29 -18 28 61 63 30 31 88 4 hvcurveto
            -96 vlineto
            -50 -13 -32 -41 -26 hhcurveto
            endchar
          </CharString>
          <CharString index="21">
            -38 401 -84 callsubr
            return
          </CharString>
          <CharString index="22">
            -33 13 -51 20 -53 30 -15 -20 rcurveline
            -88 88 14 -51 50 hhcurveto
            return
          </CharString>
          <CharString index="23">
            rmoveto
            62 11 -46 -64 -52 -18 -14 -66 3 hvcurveto
            -59 2 rlineto
            123 2 26 48 42 hhcurveto
            return
          </CharString>
          <CharString index="24">
            rmoveto
            -75 -12 70 132 135 16 68 72 75 14 -68 -131 -135 -18 -71 -72 hvcurveto
            return
          </CharString>
          <CharString index="25">
            rmoveto
            -27 80 -383 vlineto
            -353 410 -43 callsubr
            -66 417 hlineto
            385 -449 57 10 rlineto
            568 67 27 vlineto
            return
          </CharString>
          <CharString index="26">
            -68 callgsubr
            hintmask 10111000
            -92 callgsubr
            hintmask 01111000
            48 callsubr
          </CharString>
          <CharString index="27">
            44 47 33 67 56 vvcurveto
            47 -25 36 -49 return
          </CharString>
          <CharString index="28">
            91 62 -61 -130 28 hvcurveto
            31 hlineto
            -4 212 -94 -19 rlineto
            19 -45 -50 10 -50 hhcurveto
            -152 -153 -92 -216 return
          </CharString>
          <CharString index="29">
            -65 callgsubr
            -16 callsubr
            return
          </CharString>
          <CharString index="30">
            -5 4 -19 vhcurveto
            return
          </CharString>
          <CharString index="31">
            rmoveto
            -28 callsubr
            -41 -33 -34 -41 -41 33 -32 41 hvcurveto
            return
          </CharString>
          <CharString index="32">
            8 -11 -10 3 -10 hhcurveto
            -31 -25 -30 -30 -15 6 -16 16 -11 hvcurveto
            return
          </CharString>
          <CharString index="33">
            rmoveto
            -26 82 vlineto
            -113 -287 -115 287 rlineto
            58 26 -236 -26 39 hlineto
            195 -421 1 1 rlineto
            -95 -40 -29 -36 -40 -42 21 80 -63 hhcurveto
            -30 -18 -22 -24 -31 32 -38 69 84 42 47 135 56 hvcurveto
            1 hlineto
            150 376 rlineto
            22 9 8 6 21 hhcurveto
            14 6 5 21 hvcurveto
            endchar
          </CharString>
          <CharString index="34">
            23 -77 callsubr
            return
          </CharString>
          <CharString index="35">
            -48 callgsubr
            462 95 -104 callgsubr
          </CharString>
          <CharString index="36">
            350 551 rlineto
            22 -458 -27 1 vlineto
            -8 -154 rlineto
            30 hlineto
            47 90 rlineto
            40 20 24 24 37 hhcurveto
            159 1 -358 -552 rlineto
            -22 510 vlineto
            2 207 rlineto
            endchar
          </CharString>
          <CharString index="37">
            688 -92 callsubr
            return
          </CharString>
          <CharString index="38">
            rmoveto
            77 28 76 3 33 19 17 9 7 15 2 14 2 30 -21 31 -29 3 -10 1 -11 -2 -11 -7 -35 -20 -25 -42 -84 -59 rrcurveto
            return
          </CharString>
          <CharString index="39">
            -129 -34 -66 -57 -92 -35 callsubr
            -85 callgsubr
            return
          </CharString>
          <CharString index="40">
            48 46 -10 -18 28 hvcurveto
            25 6 9 20 vhcurveto
            -125 -38 vlineto
            -1 20 rlineto
            48 -48 27 -44 -39 -38 -22 -43 vhcurveto
            -105 229 28 -160 vvcurveto
            -82 -61 -47 -112 vhcurveto
            return
          </CharString>
          <CharString index="41">
            -53 callgsubr
            -65 callsubr
            return
          </CharString>
          <CharString index="42">
            -34 404 -190 -62 callgsubr
            return
          </CharString>
          <CharString index="43">
            38 -31 30 -36 -38 -30 -30 -38 -37 30 -29 38 return
          </CharString>
          <CharString index="44">
            9 callsubr
            -71 callsubr
          </CharString>
          <CharString index="45">
            -66 callsubr
            vlineto
            endchar
          </CharString>
          <CharString index="46">
            -67 11 43 -28 52 hhcurveto
            81 14 42 62 5 hvcurveto
            return
          </CharString>
          <CharString index="47">
            76 26 -47 -49 18 hvcurveto
            27 -74 rlineto
            29 hlineto
            return
          </CharString>
          <CharString index="48">
            -90 callsubr
            30 68 rlineto
            endchar
          </CharString>
          <CharString index="49">
            558 -92 callsubr
            return
          </CharString>
          <CharString index="50">
            rmoveto
            15 22 -80 69 -21 46 -34 25 rlinecurve
            -75 callsubr
            32 -23 77 -12 76 -36 rrcurveto
            return
          </CharString>
          <CharString index="51">
            -35 callgsubr
            330 -31 callsubr
            return
          </CharString>
          <CharString index="52">
            15 11 5 16 -1 15 -1 29 -26 28 -30 -2 rrcurveto
            -10 -9 -4 -8 -11 hvcurveto
            -31 -26 -18 -46 -74 -71 return
          </CharString>
          <CharString index="53">
            488 -76 callsubr
            return
          </CharString>
          <CharString index="54">
            -207 4 rlineto
            -21 1 -11 13 13 vvcurveto
            14 11 13 22 vhcurveto
            104 -1 rlineto
            3 hlineto
            124 74 82 91 46 -19 43 -36 31 hvcurveto
            17 10 15 12 17 26 7 -29 27 hhcurveto
            25 13 19 19 hvcurveto
            return
          </CharString>
          <CharString index="55">
            -81 54 -40 75 59 55 33 62 19 vhcurveto
            return
          </CharString>
          <CharString index="56">
            -45 callgsubr
            hintmask 10100000
            -80 callgsubr
            endchar
          </CharString>
          <CharString index="57">
            -15 hlineto
            -155 262 rlineto
            61 200 -31 251 -235 hhcurveto
            -332 -46 callgsubr
            306 27 -86 247 return
          </CharString>
          <CharString index="58">
            -52 callgsubr
            -25 hlineto
            1 257 rlineto
            return
          </CharString>
          <CharString index="59">
            -32 callgsubr
            hintmask 10100000
            -64 callgsubr
            endchar
          </CharString>
          <CharString index="60">
            -69 -10 34 -34 43 187 27 173 25 return
          </CharString>
          <CharString index="61">
            102 0 27 261 45 240 40 callgsubr
            -240 -67 -45 67 -261 -38 callsubr
            261 89 45 -89 240 2 callgsubr
          </CharString>
          <CharString index="62">
            -7 91 rlineto
            -180 -62 callgsubr
            283 -33 callgsubr
            -69 218 hlineto
            return
          </CharString>
          <CharString index="63">
            179 -319 -1 -227 rlineto
            -80 -27 302 -73 callgsubr
            -54 hlineto
            1 234 138 284 rlineto
            19 9 29 9 25 hhcurveto
            14 3 11 16 hvcurveto
            endchar
          </CharString>
          <CharString index="64">
            rlineto
            -156 55 callsubr
            199 -73 callgsubr
            return
          </CharString>
          <CharString index="65">
            -41 callgsubr
            -12 17 rlineto
            11 callgsubr
            return
          </CharString>
          <CharString index="66">
            -26 58 -326 hlineto
            -42 return
          </CharString>
          <CharString index="67">
            -44 callgsubr
            491 223 -101 callgsubr
          </CharString>
          <CharString index="68">
            -23 callsubr
            hstem
            96 144 253 27 vstem
            return
          </CharString>
          <CharString index="69">
            -67 -27 287 hlineto
            164 153 103 79 callsubr
            -155 97 -165 hvcurveto
            1 -573 rmoveto
            -74 return
          </CharString>
          <CharString index="70">
            -42 callgsubr
            -102 74 -27 68 79 34 30 85 27 vhcurveto
            return
          </CharString>
          <CharString index="71">
            -7 callgsubr
            -30 callsubr
            hintmask 01111000
            return
          </CharString>
          <CharString index="72">
            hhcurveto
            -114 -49 78 199 201 56 80 115 return
          </CharString>
          <CharString index="73">
            14 callsubr
            103 52 -83 -197 return
          </CharString>
          <CharString index="74">
            27 546 27 return
          </CharString>
          <CharString index="75">
            498 hlineto
            4 32 callsubr
            -29 hlineto
            return
          </CharString>
          <CharString index="76">
            80 callsubr
            -20 vhcurveto
            -68 546 15 hlineto
            76 22 -48 -49 17 hvcurveto
            31 -90 rlineto
            30 hlineto
            return
          </CharString>
          <CharString index="77">
            45 callgsubr
            146.5 -7 callsubr
            return
          </CharString>
          <CharString index="78">
            19 callgsubr
            -19 callsubr
            return
          </CharString>
          <CharString index="79">
            41 34 32 41 41 -34 34 -41 return
          </CharString>
          <CharString index="80">
            2 callsubr
            -44 callsubr
          </CharString>
          <CharString index="81">
            116 -191 rmoveto
            50 22 -5 -27 -48 -82 -25 -97 -104 -48 34 42 13 4 14 9 13 hvcurveto
            -5 13 14 -4 17 hhcurveto
            endchar
          </CharString>
          <CharString index="82">
            hstem
            64 callgsubr
            177 142 vstem
            return
          </CharString>
          <CharString index="83">
            -15 hlineto
            -253 354 164 146 rlineto
            24 26 19 23 25 hhcurveto
            29 2 -2 29 hvcurveto
            -180 -27 76 hlineto
            -281 -250 rlineto
            250 9 callgsubr
            247 hlineto
            return
          </CharString>
          <CharString index="84">
            0 27 267 29 callgsubr
            return
          </CharString>
          <CharString index="85">
            -47 callgsubr
            50 -16 -115 73 hhcurveto
            34 23 22 27 return
          </CharString>
          <CharString index="86">
            23 -2 callsubr
            return
          </CharString>
          <CharString index="87">
            -94 0 30.5 hstem
            187 140 vstem
            327 82 callsubr
            -89 hlineto
            -213 -135 18 -28 144 87 rlineto
            -489 vlineto
            -127 -9 rlineto
            -26 378 vlineto
            19 -11 5 -20 2 vhcurveto
            -80 9 rlineto
            endchar
          </CharString>
          <CharString index="88">
            hstem
            18 callsubr
            162 vstem
            return
          </CharString>
          <CharString index="89">
            35 callsubr
            81 -196 hlineto
            -22 -29 -35 -10 -39 -35 callsubr
            hvcurveto
            return
          </CharString>
          <CharString index="90">
            rmoveto
            -68 callgsubr
            return
          </CharString>
          <CharString index="91">
            164 153 113 195 return
          </CharString>
          <CharString index="92">
            26 378 26 return
          </CharString>
          <CharString index="93">
            -86 callsubr
            endchar
          </CharString>
          <CharString index="94">
            rmoveto
            49 callgsubr
            return
          </CharString>
          <CharString index="95">
            -1 callsubr
            146.5 132 hintmask 10111000
            return
          </CharString>
          <CharString index="96">
            55 0 27 247 30 269 25 callgsubr
            126.350006104 vstem
            return
          </CharString>
          <CharString index="97">
            68 17 callgsubr
            66 return
          </CharString>
          <CharString index="98">
            -50 -4 -14 -21 -17 hhcurveto
            return
          </CharString>
          <CharString index="99">
            96 -85 -137 110 hhcurveto
            43 22 25 29 47 -60 61 -123 return
          </CharString>
          <CharString index="100">
            132.5 return
          </CharString>
          <CharString index="101">
            -143 -15 callgsubr
            18 callgsubr
            323 25 vstem
            return
          </CharString>
          <CharString index="102">
            -36 26 -24 28 -6 vhcurveto
            18 -4 7 -6 -14 vvcurveto
            return
          </CharString>
          <CharString index="103">
            11 callsubr
            -33 256 hlineto
            return
          </CharString>
          <CharString index="104">
            30 -12 48 -21 46 -25 return
          </CharString>
          <CharString index="105">
            -5 3 -19 vhcurveto
            return
          </CharString>
          <CharString index="106">
            0 48 callgsubr
            -41 26 hstemhm
            78 -7 callsubr
            return
          </CharString>
          <CharString index="107">
            2 163 -17 callgsubr
            return
          </CharString>
          <CharString index="108">
            rmoveto
            80 40 43 53 25 callsubr
            81 callgsubr
            hvcurveto
            0 callsubr
            return
          </CharString>
          <CharString index="109">
            rmoveto
            -27 85 vlineto
            -137 -277 -144 277 rlineto
            72 27 -275 -27 42 hlineto
            return
          </CharString>
          <CharString index="110">
            -47 -51 callgsubr
            96 144 243 27 vstem
            return
          </CharString>
          <CharString index="111">
            119 -66 44 -72 -62 -55 -39 -54 -26 vhcurveto
            return
          </CharString>
          <CharString index="112">
            -41 -10 25 405 25 return
          </CharString>
          <CharString index="113">
            rmoveto
            38 30 32 39 38 -28 25 -29 6 hvcurveto
            -19 4 -7 7 14 vvcurveto
            17 15 30 24 25 vhcurveto
            -21 16 rlineto
            -44 -47 -33 -67 -56 vvcurveto
            -47 25 -36 49 vhcurveto
            return
          </CharString>
          <CharString index="114">
            176 8 callgsubr
            return
          </CharString>
          <CharString index="115">
            19 -30 -40 11 -48 hhcurveto
            -125 -75 -74 -92 -60 42 -54 56 -31 hvcurveto
            -2 hlineto
            return
          </CharString>
          <CharString index="116">
            rmoveto
            -29 -96 rlineto
            -44 -13 -24 -40 -61 hhcurveto
            -193 hlineto
            return
          </CharString>
          <CharString index="117">
            90 0 39 callsubr
            return
          </CharString>
          <CharString index="118">
            63 callgsubr
            -20 vhcurveto
            return
          </CharString>
          <CharString index="119">
            -94 -22 -48 -44 -52 -41 callgsubr
            endchar
          </CharString>
          <CharString index="120">
            61 callsubr
            hstem
            87 68 callgsubr
            return
          </CharString>
          <CharString index="121">
            200 52 85 103 return
          </CharString>
          <CharString index="122">
            83 210 -45 callgsubr
            return
          </CharString>
          <CharString index="123">
            96 -10 79 callgsubr
            return
          </CharString>
          <CharString index="124">
            -163 0 26 281 131 -34 26 hstemhm
            return
          </CharString>
          <CharString index="125">
            35 162 310 return
          </CharString>
          <CharString index="126">
            -205 -49 -81 -103 return
          </CharString>
          <CharString index="127">
            76 -546 return
          </CharString>
          <CharString index="128">
            rmoveto
            -320 -55 320 hlineto
            return
          </CharString>
          <CharString index="129">
            -61 -195 27 105 116 56 19 297 20 -15 67 return
          </CharString>
          <CharString index="130">
            17 callsubr
            78 132 return
          </CharString>
          <CharString index="131">
            118 36 76 60 52 36 -57 -118 return
          </CharString>
          <CharString index="132">
            50 -37 41 -78 -80 -40 -40 -52 return
          </CharString>
          <CharString index="133">
            -35 -5 37 32 34 7 36 33 return
          </CharString>
          <CharString index="134">
            -228 29 122 28 return
          </CharString>
          <CharString index="135">
            37 33 49 61 26 return
          </CharString>
          <CharString index="136">
            hstemhm
            20 135 return
          </CharString>
          <CharString index="137">
            22 callsubr
            50 callsubr
            return
          </CharString>
          <CharString index="138">
            164 -6 -269 -150 hhcurveto
            -70 return
          </CharString>
          <CharString index="139">
            197 rlineto
            return
          </CharString>
          <CharString index="140">
            -12 -5 -12 0 -12 0 -12 5 -12 -12 flex1
            return
          </CharString>
          <CharString index="141">
            12 5 12 0 12 0 12 -5 12 12 flex1
            return
          </CharString>
          <CharString index="142">
            -278 -27 return
          </CharString>
          <CharString index="143">
            -62 540 55 hstem
            90 320 vstem
            90 595 44 callgsubr
            endchar
          </CharString>
          <CharString index="144">
            10 callsubr
            66 callgsubr
            return
          </CharString>
          <CharString index="145">
            10 -51 callgsubr
            501 35 vstem
            return
          </CharString>
          <CharString index="146">
            27 192 30 return
          </CharString>
          <CharString index="147">
            195 45 hstem
            25 300 vstem
            25 240 rmoveto
            -45 300 45 vlineto
            endchar
          </CharString>
          <CharString index="148">
            25 28 rrcurveto
            10 34 callsubr
            -27 31 return
          </CharString>
          <CharString index="149">
            136 -9 30 228 27 303 31 return
          </CharString>
          <CharString index="150">
            -53 callgsubr
            -52 return
          </CharString>
          <CharString index="151">
            132 57 26 return
          </CharString>
          <CharString index="152">
            -20 -15 15 35 return
          </CharString>
          <CharString index="153">
            4 -51 callgsubr
            22 28 161 144 161 28 vstem
            return
          </CharString>
          <CharString index="154">
            -243 0 26 598 26 return
          </CharString>
          <CharString index="155">
            5 -82 rlineto
            endchar
          </CharString>
          <CharString index="156">
            -2 -189 rlineto
            25 hlineto
            18 46 rlineto
            return
          </CharString>
          <CharString index="157">
            hstemhm
            43 132 -126 49 -38 35 return
          </CharString>
          <CharString index="158">
            120 40 81 61 55 26 -66 -116 -127 -31 -71 -57 return
          </CharString>
          <CharString index="159">
            149 -138 72 callgsubr
            return
          </CharString>
          <CharString index="160">
            121 -21 rlineto
            249 53 vlineto
            return
          </CharString>
          <CharString index="161">
            -15 callgsubr
            194 26 return
          </CharString>
          <CharString index="162">
            -27 67 -546 -67 -27 return
          </CharString>
          <CharString index="163">
            83 79 35 76 27 hvcurveto
            return
          </CharString>
          <CharString index="164">
            -65 -17 -30 -25 -29 hhcurveto
            return
          </CharString>
          <CharString index="165">
            -40 -10 -12 -36 vhcurveto
            return
          </CharString>
          <CharString index="166">
            122 -212 166 8 callgsubr
            return
          </CharString>
          <CharString index="167">
            45 28 68 32 60 -21 17 rcurveline
            -55 -59 -83 -65 return
          </CharString>
          <CharString index="168">
            -244 -56 callgsubr
            return
          </CharString>
          <CharString index="169">
            -72 -182 35 551 26 return
          </CharString>
          <CharString index="170">
            199 hlineto
            return
          </CharString>
          <CharString index="171">
            132 vstem
            return
          </CharString>
          <CharString index="172">
            27 hstem
            35 callgsubr
            return
          </CharString>
          <CharString index="173">
            -192 30 162 return
          </CharString>
          <CharString index="174">
            -192 30 152 return
          </CharString>
          <CharString index="175">
            hstemhm
            50 462 -308 245 hintmask 11000000
            return
          </CharString>
          <CharString index="176">
            27 hstem
            92 144 231 162 vstem
            return
          </CharString>
          <CharString index="177">
            hintmask 00000000
            hintmask 11110100
            return
          </CharString>
          <CharString index="178">
            -40 -17 -12 -40 vhcurveto
            -26 return
          </CharString>
          <CharString index="179">
            hstemhm
            35 callgsubr
            return
          </CharString>
          <CharString index="180">
            123 -19 callgsubr
            return
          </CharString>
          <CharString index="181">
            hintmask 0000000000000000
            return
          </CharString>
          <CharString index="182">
            -15 callgsubr
            58 148 return
          </CharString>
          <CharString index="183">
            -33 callgsubr
            endchar
          </CharString>
          <CharString index="184">
            20 18 rcurveline
            -31 58 return
          </CharString>
          <CharString index="185">
            24 139 24 return
          </CharString>
          <CharString index="186">
            195 205 return
          </CharString>
          <CharString index="187">
            hlineto
            23 -5 4 return
          </CharString>
          <CharString index="188">
            hstemhm
            81 188 return
          </CharString>
          <CharString index="189">
            600 rmoveto
            return
          </CharString>
        <CharString name=".notdef">
          -62 -254 69 33 47 33 23 33 47 33 60 33 24 56 22 34 23 33 37 33 27 34 36 34 26 33 37 33 67 hstem
          93 74 33 33 34 33 33 77 vstem
          410 746 rmoveto
          -317 -1000 317 hlineto
          -77 933 rmoveto
          -33 -66 -37 66 -33 -166 33 66 37 -65 33 vlineto
          99 -129 rmoveto
          -70 66 -34 -166 104 vlineto
          66 -34 rmoveto
          -33 -36 33 hlineto
          100 -61 rmoveto
          -33 -66 -70 -100 33 66 37 -66 33 vlineto
          166 -60 rmoveto
          -100 -166 34 133 66 vlineto
          33 -122 rmoveto
          -113 -166 113 33 -80 100 47 -33 -23 -34 56 vlineto
          100 -173 rmoveto
          -113 -166 113 vlineto
          133 -33 rmoveto
          -100 -47 100 hlineto
          33 -56 rmoveto
          -33 -32 vlineto
          -70 -47 rlineto
          102 -33 -166 33 hlineto
          70 47 rlineto
          -70 33 hlineto
          endchar
        </CharString>
        <CharString name="A">
          37 callsubr
          633 27 -106 callsubr
        </CharString>
        <CharString name="AE">
          637 0 39 callsubr
          45 29 callgsubr
          hstem
          748 144 253 27 vstem
          633 27 -102 callgsubr
          484 96 -19 callgsubr
          -99 callsubr
          -952 52 -39 callgsubr
        </CharString>
        <CharString name="Aacute">
          37 callsubr
          425 -91 callgsubr
          208 -655 -106 callsubr
        </CharString>
        <CharString name="Abreve">
          10 callsubr
          384 83 hstem
          195 20 220 21 vstem
          326 633 -43 callgsubr
          307 -606 -106 callsubr
        </CharString>
        <CharString name="Acircumflex">
          37 callsubr
          327 -70 callsubr
          306 -661 -106 callsubr
        </CharString>
        <CharString name="Adieresis">
          10 callsubr
          382 134 hstem
          164 28 callgsubr
          vstem
          232 -77 callgsubr
          216 -604 -106 callsubr
        </CharString>
        <CharString name="Agrave">
          37 callsubr
          234 -60 callgsubr
          399 -655 -106 callsubr
        </CharString>
        <CharString name="Amacron">
          10 callsubr
          421 55 66 callgsubr
          488 725 21 callsubr
          145 -643 -106 callsubr
        </CharString>
        <CharString name="Aogonek">
          90 66 callsubr
          39 callsubr
          hstem
          430 107 vstem
          572 -162 rmoveto
          45 callsubr
          28 callsubr
          hvcurveto
          26 -73 callgsubr
          -98 callgsubr
          188 hlineto
          -94 -22 -48 -44 -52 -42 callsubr
          -379 411 -39 callgsubr
        </CharString>
        <CharString name="Aring">
          10 callsubr
          506 24 hstem
          207 77 81 77 vstem
          633 27 rmoveto
          -32 hlineto
          -233 571 rlineto
          49 13 25 35 42 vvcurveto
          25 callsubr
          -44 26 -36 53 -12 vhcurveto
          -217 -568 -93 callsubr
          273 -73 callgsubr
          -309 728 -17 callgsubr
          -131 -506 -39 callgsubr
        </CharString>
        <CharString name="Atilde">
          10 callsubr
          393 78 -16 78 hstemhm
          171 20 278 21 hintmask 11011100
          249 704 rmoveto
          hintmask 11101100
          -23 callgsubr
          hintmask 11011100
          3 callgsubr
          57 callgsubr
          384 -677 -106 callsubr
        </CharString>
        <CharString name="B">
          58 0 27 284 28 234 27 72 callsubr
          163.75 131.669998169 -100.300003052 153 hintmask 11111000
          425 332 rmoveto
          66 173 -32 202 -224 hhcurveto
          -322 -46 callgsubr
          hlineto
          hintmask 11110100
          340 hlineto
          hintmask 11111000
          278 27 293 39 -240 hvcurveto
          -143 241 rmoveto
          164 -6 -234 -150 hhcurveto
          -50 234 hlineto
          hintmask 11110100
          65 -546 rmoveto
          -65 284 80 hlineto
          1 hlineto
          -1 hlineto
          166 -20 -284 -161 hhcurveto
          endchar
        </CharString>
        <CharString name="C">
          23 callgsubr
          489 21 -38 callgsubr
        </CharString>
        <CharString name="Cacute">
          23 callgsubr
          223 681 -88 callgsubr
          281 -682 -38 callgsubr
        </CharString>
        <CharString name="Ccaron">
          23 callgsubr
          310 701 -105 callsubr
          245 -494 rmoveto
          -68 callsubr
          56 callgsubr
          endchar
        </CharString>
        <CharString name="Ccedilla">
          56 27 callsubr
          40 39 callgsubr
          164 112 76 29 vstem
          555 207 rmoveto
          -129 -34 -66 -57 -92 -35 callsubr
          -79 callsubr
          -199 128 -94 138 -16 hvcurveto
          -39 -78 -90 callsubr
          23 51 rlineto
          16 hlineto
          51 51 10 20 44 hvcurveto
          56 callgsubr
          endchar
        </CharString>
        <CharString name="D">
          102 0 27 546 27 hstem
          92 144 231 162 vstem
          309 600 -14 callgsubr
        </CharString>
        <CharString name="Dcaron">
          102 0 27 546 69 callsubr
          323 -89 callgsubr
          -14 -31 -14 callgsubr
        </CharString>
        <CharString name="Dcroat">
          -46 callsubr
        </CharString>
        <CharString name="E">
          -15 -39 callsubr
          465 123 -94 callsubr
        </CharString>
        <CharString name="Eacute">
          -15 -39 callsubr
          399 692 -107 callgsubr
          66 -569 -94 callsubr
        </CharString>
        <CharString name="Ecaron">
          -15 -39 callsubr
          297 -89 callgsubr
          168 -508 -94 callsubr
        </CharString>
        <CharString name="Ecircumflex">
          -15 -39 callsubr
          297 -70 callsubr
          168 -565 -94 callsubr
        </CharString>
        <CharString name="Edieresis">
          50 callgsubr
          31 134 72 callsubr
          -106 28 callgsubr
          37 27 hintmask 00000000
          hintmask 11110111
          202 -77 callgsubr
          78 -508 -19 callgsubr
          hintmask 11101011
          -96 callsubr
        </CharString>
        <CharString name="Edotaccent">
          50 callgsubr
          18 148 72 callsubr
          -19 149 123 27 hintmask 00000000
          hintmask 11110110
          295 618 -76 callsubr
          170 -495 -19 callgsubr
          hintmask 11101010
          -96 callsubr
        </CharString>
        <CharString name="Egrave">
          -15 -39 callsubr
          204 -60 callgsubr
          261 -559 -94 callsubr
        </CharString>
        <CharString name="Emacron">
          50 callgsubr
          70 55 hstem
          35 callgsubr
          253 27 vstem
          458 725 21 callsubr
          7 -547 -94 callsubr
        </CharString>
        <CharString name="Eogonek">
          -15 66 callsubr
          27 -27 197 97 29 callgsubr
          72 callsubr
          67 107 79 27 hintmask 11011111
          465 73 callsubr
          -95 callgsubr
          429 hlineto
          -94 -22 -48 -44 -52 -11 callgsubr
          hvcurveto
          hintmask 10111111
          28 callsubr
          vhcurveto
          10 hlineto
          4 32 callsubr
          -29 hlineto
          endchar
        </CharString>
        <CharString name="Eth">
          -46 callsubr
        </CharString>
        <CharString name="F">
          -25 -39 callsubr
          518 82 callsubr
          -498 -46 callgsubr
          336 27 -116 -88 callsubr
          endchar
        </CharString>
        <CharString name="G">
          42 callsubr
          hstemhm
          35 165 266 144 -58 29 hintmask 11111000
          663 276 rmoveto
          -18 callsubr
          hintmask 11110100
          -85 callgsubr
          hintmask 11111000
          53 callsubr
          endchar
        </CharString>
        <CharString name="Gbreve">
          42 callsubr
          23 83 hstemhm
          35 165 26 20 220 21 -21 144 -58 29 74 callsubr
          hintmask 1111111000000000
          357 633 -43 callgsubr
          306 -357 rmoveto
          hintmask 1110100100000000
          -18 callsubr
          hintmask 1110100010000000
          -85 callgsubr
          hintmask 1110100100000000
          53 callsubr
          endchar
        </CharString>
        <CharString name="H">
          150 -23 callsubr
          59 callgsubr
          250 68 callgsubr
          687 573 rmoveto
          17 callgsubr
          76 -249 -250 249 9 callgsubr
          267 250 -267 -76 -27 278 -73 callgsubr
          -34 546 hlineto
          endchar
        </CharString>
        <CharString name="I">
          13 callsubr
          298 573 -50 callgsubr
        </CharString>
        <CharString name="Iacute">
          13 callsubr
          254 -91 callgsubr
          44 -109 -50 callgsubr
        </CharString>
        <CharString name="Icircumflex">
          13 callsubr
          156 -70 callsubr
          142 -115 -50 callgsubr
        </CharString>
        <CharString name="Idieresis">
          61 callsubr
          31 75 callgsubr
          -7 135 -41 144 -51 135 70 callsubr
          128 697 rmoveto
          -64 callsubr
          36 30 callgsubr
          vhcurveto
          118 -66 rmoveto
          -82 callgsubr
          52 -31 rmoveto
          hintmask 11001000
          31 callgsubr
        </CharString>
        <CharString name="Idotaccent">
          61 callsubr
          18 82 callgsubr
          80 149 -142 144 hintmask 00000000
          hintmask 11110000
          154 618 -76 callsubr
          hintmask 11001000
          144 -45 -50 callgsubr
        </CharString>
        <CharString name="Igrave">
          13 callsubr
          63 -60 callgsubr
          235 -109 -50 callgsubr
        </CharString>
        <CharString name="Imacron">
          61 callsubr
          70 55 hstem
          87 68 callgsubr
          -3 725 44 callgsubr
          -19 -125 rmoveto
          31 callgsubr
        </CharString>
        <CharString name="Iogonek">
          -244 66 callsubr
          -33 callsubr
          hstemhm
          87 144 -138 107 hintmask 00000000
          hintmask 11101000
          287 -139 -13 callsubr
          4 hlineto
          hintmask 11110000
          -73 callsubr
          -43 546 67 27 -278 55 callsubr
          215 hlineto
          hintmask 11101000
          12 callsubr
        </CharString>
        <CharString name="J">
          -123 -19 22 570 27 hstem
          212 68 callgsubr
          414 82 callsubr
          35 callsubr
          76 -380 hlineto
          -120 -11 -70 -43 vhcurveto
          -55 30 104 -73 hhcurveto
          -36 -19 -23 -27 -53 66 -23 74 98 113 53 142 hvcurveto
          397 58 vlineto
          endchar
        </CharString>
        <CharString name="K">
          85 -51 callgsubr
          91 144 205 180 vstem
          264 299 rmoveto
          207 -300 7 callsubr
          -24 callsubr
          endchar
        </CharString>
        <CharString name="L">
          3 callsubr
          483 217 -49 callgsubr
          endchar
        </CharString>
        <CharString name="Lacute">
          3 callsubr
          357 -91 callgsubr
          126 -465 -49 callgsubr
          endchar
        </CharString>
        <CharString name="Lcaron">
          3 callsubr
          180 -89 callgsubr
          303 -414 -49 callgsubr
          endchar
        </CharString>
        <CharString name="Lslash">
          3 callsubr
          483 217 4 callgsubr
          241 hlineto
          191 106 -17 31 -174 -96 rlineto
          264 58 17 callgsubr
          76 -343 vlineto
          -92 -51 17 -32 75 42 rlineto
          -162 -76 -27 488 vlineto
          4 217 rlineto
          endchar
        </CharString>
        <CharString name="M">
          238 -51 callgsubr
          97 37 441 137 vstem
          770 573 rmoveto
          27 -195 vlineto
          -168 -436 -221 436 -43 callsubr
          -71 388 hlineto
          226 -425 rlineto
          18 hlineto
          197 505 rlineto
          -468 -76 -27 271 vlineto
          -73 callsubr
          -34 546 hlineto
          endchar
        </CharString>
        <CharString name="N">
          60 callgsubr
          459 600 -82 callsubr
          endchar
        </CharString>
        <CharString name="Nacute">
          60 callgsubr
          436 -91 callgsubr
          23 -82 -82 callsubr
          endchar
        </CharString>
        <CharString name="Ncaron">
          60 callgsubr
          338 -89 callgsubr
          121 -31 -82 callsubr
          endchar
        </CharString>
        <CharString name="Ntilde">
          106 -56 callgsubr
          42 78 -16 78 hstemhm
          97 42 43 20 278 21 38 42 hintmask 11011001
          260 704 rmoveto
          hintmask 11101011
          -23 callgsubr
          hintmask 11011101
          3 callgsubr
          hintmask 11011001
          57 callgsubr
          199 -104 -82 callsubr
          endchar
        </CharString>
        <CharString name="O">
          -29 callsubr
          669 298 -100 callsubr
        </CharString>
        <CharString name="OE">
          409 -10 27 -17 27 267 29 callgsubr
          -17 27 hstemhm
          18 callsubr
          159 251 27 hintmask 01110111
          889 73 callsubr
          -104 225 hlineto
          2 13 1 14 15 vvcurveto
          185 30 -186 hlineto
          8 -1 7 -1 8 vhcurveto
          226 104 vlineto
          -60 callsubr
          -4 32 callsubr
          -498 -1 hlineto
          hintmask 10101111
          7 -29 -30 4 -30 hhcurveto
          -65 callgsubr
          31 31 4 8 30 hvcurveto
          -2 vlineto
          hintmask 01110111
          -32 callsubr
          hintmask 10101111
          -720 101 rmoveto
          -34 callsubr
          19 callsubr
          -103 -55 71 210 vhcurveto
          hintmask 01110111
          325 275 rmoveto
          -5 vlineto
          -9 5 rlineto
          -5 -546 rmoveto
          5 2 4 3 5 3 rrcurveto
          -8 vlineto
          endchar
        </CharString>
        <CharString name="Oacute">
          -29 callsubr
          272 611 -88 callgsubr
          412 -335 -100 callsubr
        </CharString>
        <CharString name="Ocircumflex">
          -29 callsubr
          359 -70 callsubr
          -4 -78 rmoveto
          -78 callsubr
          -3 callgsubr
          hvcurveto
          -593 vmoveto
          -54 callgsubr
          19 callsubr
          hvcurveto
          endchar
        </CharString>
        <CharString name="Odieresis">
          19 callgsubr
          21 75 callgsubr
          35 162 -1 28 callgsubr
          -11 162 hintmask 00000000
          hintmask 11101100
          264 -77 callgsubr
          hintmask 11010010
          220 -333 -100 callsubr
        </CharString>
        <CharString name="Ograve">
          -29 callsubr
          451 611 -57 callsubr
          218 -313 -100 callsubr
        </CharString>
        <CharString name="Ohungarumlaut">
          19 callgsubr
          52.5299987793 58 callgsubr
          -19 callsubr
          213 631 -72 callgsubr
          295 -360 -100 callsubr
        </CharString>
        <CharString name="Omacron">
          19 callgsubr
          60 55 -19 callsubr
          200 725 44 callgsubr
          149 -427 -100 callsubr
        </CharString>
        <CharString name="Oslash">
          -29 callsubr
          495 581 rmoveto
          51 129 rlineto
          -85 hlineto
          -42 -106 rlineto
          4 -21 -21 2 -22 hhcurveto
          -27 callgsubr
          -131 66 -94 91 -48 hvcurveto
          -72 -184 rlineto
          85 hlineto
          61 155 rlineto
          -6 28 29 -4 29 hhcurveto
          -16 callsubr
          144 -73 95 -101 44 hvcurveto
          -298 -283 rmoveto
          14 callsubr
          20 19 -3 -7 16 vhcurveto
          -184 -466 rlineto
          -17 44 -9 62 85 vvcurveto
          158 -281 rmoveto
          -29 -25 6 12 -21 hvcurveto
          189 480 rlineto
          25 -45 13 -70 -97 vvcurveto
          19 callsubr
          vhcurveto
          endchar
        </CharString>
        <CharString name="Otilde">
          -29 callsubr
          203 652 -36 callgsubr
          446 -351 -100 callsubr
        </CharString>
        <CharString name="P">
          38 0 27 237 30 279 25 callgsubr
          126.369995117 vstem
          320 264 rmoveto
          303 -3 336 -268 hhcurveto
          -332 -46 callgsubr
          336 27 -116 237 hlineto
          62 309 rmoveto
          164 -6 -279 -150 hhcurveto
          -70 279 hlineto
          endchar
        </CharString>
        <CharString name="Q">
          -107 113 -16 27 62 49 455 27 hstemhm
          18 callsubr
          162 hintmask 00000000
          hintmask 10011100
          711 66 rmoveto
          -39 -39 -41 -21 -41 hhcurveto
          -28 -25 10 14 -23 hvcurveto
          90 49 65 92 127 vvcurveto
          -3 callgsubr
          -27 callgsubr
          vhcurveto
          hintmask 01011100
          -22 callgsubr
          19 19 2 3 19 vhcurveto
          hintmask 10111100
          -50 36 44 -52 71 hhcurveto
          70 60 63 93 45 hvcurveto
          -383 534 rmoveto
          103 52 -83 -197 -114 -15 -75 -31 -45 hvcurveto
          30 -37 -37 29 -43 hhcurveto
          -38 -36 -25 -34 -26 hvcurveto
          -31 43 -16 73 113 vvcurveto
          14 callsubr
          vhcurveto
          hintmask 01111100
          3 -566 rmoveto
          -36 -31 9 20 -24 hvcurveto
          21 21 19 12 19 hhcurveto
          23 21 -26 -32 23 hvcurveto
          -3 -11 -11 -1 -13 hhcurveto
          endchar
        </CharString>
        <CharString name="R">
          -11 callsubr
          284 274 -69 callgsubr
        </CharString>
        <CharString name="Racute">
          -11 callsubr
          401 -91 callgsubr
          -117 -408 -69 callgsubr
        </CharString>
        <CharString name="Rcaron">
          -11 callsubr
          303 -89 callgsubr
          -19 -357 -69 callgsubr
        </CharString>
        <CharString name="S">
          -20 -10 629 68 callsubr
          83 210 -51 callsubr
        </CharString>
        <CharString name="Sacute">
          -20 614 19 68 callsubr
          211 611 -88 callgsubr
          -113 -423 -51 callsubr
        </CharString>
        <CharString name="Scaron">
          -20 -10 29 565 30 hstemhm
          50 30 -26 150 166 142 -63 29 hintmask 11100100
          298 -89 callgsubr
          hintmask 11011000
          -94 -133 rmoveto
          54 44 32 54 vhcurveto
          hintmask 11010100
          65 84 -51 -108 -2 hvcurveto
          29 194 hlineto
          -25 -5 -13 -35 hvcurveto
          29 -54 -65 14 -65 hhcurveto
          -109 -101 -51 -111 hvcurveto
          hintmask 11011000
          -193 316 6 -142 vvcurveto
          -64 -39 -40 -71 vhcurveto
          hintmask 11101000
          -103 -66 74 117 -8 hvcurveto
          -33 -212 hlineto
          28 2 7 36 hvcurveto
          -36 54 70 -15 66 hhcurveto
          123 119 56 121 hvcurveto
          hintmask 11011000
          192 -308 -9 148 vvcurveto
          endchar
        </CharString>
        <CharString name="T">
          46 callsubr
          542 600 -56 callsubr
          endchar
        </CharString>
        <CharString name="Tcaron">
          46 callsubr
          284 -89 callgsubr
          258 -31 -56 callsubr
          endchar
        </CharString>
        <CharString name="Thorn">
          38 endchar
        </CharString>
        <CharString name="U">
          24 callgsubr
          638 600 -95 callsubr
        </CharString>
        <CharString name="Uacute">
          24 callgsubr
          448 -91 callgsubr
          190 -82 -95 callsubr
        </CharString>
        <CharString name="Ucircumflex">
          24 callgsubr
          350 -70 callsubr
          288 -88 -95 callsubr
        </CharString>
        <CharString name="Udieresis">
          16 callsubr
          31 75 callgsubr
          91 144 -48 28 callgsubr
          17 37 hintmask 00000000
          hintmask 11101110
          255 -77 callgsubr
          198 -31 rmoveto
          hintmask 11010010
          -96 callgsubr
        </CharString>
        <CharString name="Ugrave">
          24 callgsubr
          257 -60 callgsubr
          381 -82 -95 callsubr
        </CharString>
        <CharString name="Uhungarumlaut">
          16 callsubr
          62.5299987793 58 callgsubr
          26 callgsubr
          380 709 -37 callgsubr
          273 -58 -95 callsubr
        </CharString>
        <CharString name="Umacron">
          16 callsubr
          70 55 26 callgsubr
          511 725 21 callsubr
          127 -70 -95 callsubr
        </CharString>
        <CharString name="Uogonek">
          96 67 callsubr
          79 callgsubr
          59 callgsubr
          56 107 128 37 vstem
          638 82 callsubr
          -101 callsubr
          -205 -735 rmoveto
          45 callsubr
          28 callsubr
          hvcurveto
          -1 10 rlineto
          -133 -16 -67 -50 -62 -42 callsubr
          endchar
        </CharString>
        <CharString name="Uring">
          16 callsubr
          12 78 callsubr
          hstemhm
          91 144 18 77 81 77 38 37 hintmask 00000000
          hintmask 11111111
          368 612 1 callsubr
          hintmask 11011001
          268 -175 -95 callsubr
        </CharString>
        <CharString name="V">
          53 573 27 hstemhm
          446 53 callgsubr
          446 82 callsubr
          -27 70 vlineto
          -151 -423 -171 423 rlineto
          80 27 -271 -27 51 hlineto
          198 -496 rlineto
          -73 29 5 -9 40 hhcurveto
          21 hlineto
          209 578 rlineto
          59 27 hlineto
          endchar
        </CharString>
        <CharString name="W">
          348 573 27 hstemhm
          741 53 callgsubr
          741 82 callsubr
          -27 75 vlineto
          -139 -421 -152 422 84 -1 rlineto
          27 -241 vlineto
          76 -197 -94 -259 -155 429 rlineto
          64 27 -254 -27 43 hlineto
          222 -573 rlineto
          60 hlineto
          7 22 124 336 139 -358 rlineto
          60 hlineto
          29 89 162 484 rlineto
          59 27 hlineto
          endchar
        </CharString>
        <CharString name="X">
          90 -51 callgsubr
          9 638 vstem
          623 27 rmoveto
          -36 hlineto
          -222 319 143 199 rlineto
          18 13 25 10 25 hhcurveto
          14 3 11 16 hvcurveto
          -184 -27 87 hlineto
          -144 -200 -139 200 rlineto
          72 27 -268 -27 45 hlineto
          201 -292 -161 -226 rlineto
          -19 -14 -34 -9 -20 hhcurveto
          -12 -8 -7 -20 hvcurveto
          203 27 -95 hlineto
          160 226 155 -226 rlineto
          -87 -27 302 -73 callgsubr
          endchar
        </CharString>
        <CharString name="Y">
          52 callgsubr
          404 600 -27 callsubr
        </CharString>
        <CharString name="Yacute">
          52 callgsubr
          423 -91 callgsubr
          -19 -82 -27 callsubr
        </CharString>
        <CharString name="Ydieresis">
          26 -56 callgsubr
          31 75 callgsubr
          162 135 -71.5 144 -20.5 135 70 callsubr
          230 -77 callgsubr
          -11 -31 2 callsubr
          hintmask 11001000
          -44 callsubr
        </CharString>
        <CharString name="Z">
          38 callsubr
          501 207 -63 callsubr
        </CharString>
        <CharString name="Zacute">
          38 callsubr
          415 -91 callgsubr
          86 -475 -63 callsubr
        </CharString>
        <CharString name="Zcaron">
          38 callsubr
          317 -89 callgsubr
          184 -424 -63 callsubr
        </CharString>
        <CharString name="Zdotaccent">
          10 -56 callgsubr
          18 82 callgsubr
          241 149 111 35 hintmask 00000000
          hintmask 11111000
          315 618 -76 callsubr
          186 -411 9 callsubr
          hintmask 11011000
          -71 callsubr
        </CharString>
        <CharString name="a">
          -72 callsubr
        </CharString>
        <CharString name="aacute">
          -48 callgsubr
          346 -86 callgsubr
          116 -457 -104 callgsubr
        </CharString>
        <CharString name="abreve">
          -47 callsubr
          58 83 29 callsubr
          -39 20 137 132 -49 21 85 26 74 callsubr
          hintmask 1011101011000000
          247 503 -43 callgsubr
          215 -408 rmoveto
          -9 callsubr
          hintmask 1011110101000000
          -105 callgsubr
          hintmask 0111110101000000
          -52 callsubr
          hintmask 1011110101000000
          -61 callsubr
          hintmask 0111110101000000
          -89 callsubr
        </CharString>
        <CharString name="acircumflex">
          -48 callgsubr
          248 -58 callsubr
          214 -463 -104 callgsubr
        </CharString>
        <CharString name="acute">
          -62 481 173 hstem
          168 222 vstem
          183 -70 callgsubr
          endchar
        </CharString>
        <CharString name="adieresis">
          -47 callsubr
          56 134 29 callsubr
          -70 135 53 44 callsubr
          74 callsubr
          hintmask 1011101110000000
          153 -66 callgsubr
          124 -406 rmoveto
          -9 callsubr
          -103 callgsubr
          hintmask 0111110110000000
          -170 -3 -83 -46 -87 vvcurveto
          -52 callsubr
          hintmask 1011110110000000
          -61 callsubr
          hintmask 0111110110000000
          -89 callsubr
        </CharString>
        <CharString name="ae">
          400 -10 29 -29 34 -34 43 188.5 26.5 172 25 -4 callgsubr
          28 16 callgsubr
          74 callsubr
          hintmask 0101111111000000
          427 24 rmoveto
          -105 callgsubr
          hintmask 0011111011000000
          -52 callsubr
          hintmask 0101111111000000
          -61 callsubr
          -26 1 rlineto
          -9 callsubr
          hintmask 1001111011000000
          339 -5 -106 callgsubr
          hintmask 0011111011000000
          -526 -387 -87 callsubr
        </CharString>
        <CharString name="agrave">
          -48 callgsubr
          155 552 -83 callgsubr
          307 -457 -104 callgsubr
        </CharString>
        <CharString name="amacron">
          -47 callsubr
          95 55 -4 callgsubr
          hintmask 10111111
          409 595 21 callsubr
          53 -445 rmoveto
          -97 callgsubr
          hintmask 01111111
          -52 callsubr
          hintmask 10111111
          -61 callsubr
          hintmask 01111111
          -89 callsubr
        </CharString>
        <CharString name="aogonek">
          -69 67 callsubr
          43 187 27 173 25 29 callsubr
          98 107 -87 44 callsubr
          hintmask 11111011
          488 94 rmoveto
          -26 1 rlineto
          -97 callgsubr
          -52 callsubr
          9 -57 33 -29 41 -7 rrcurveto
          hintmask 11111101
          -74 -24 -38 -40 -46 15 callgsubr
          6 rlineto
          hintmask 11111011
          25 18 7 31 3 39 rrcurveto
          -89 callsubr
        </CharString>
        <CharString name="apostrophe">
          -502 349 173 hstem
          18 141 vstem
          18 349 rmoveto
          173 141 -173 vlineto
          endchar
        </CharString>
        <CharString name="aring">
          -47 callsubr
          37 78 callsubr
          29 callsubr
          -33 77 74 132 -125 77 105 26 hintmask 1011110110100000
          237 482 rmoveto
          hintmask 1011110101100000
          80 40 43 53 25 callsubr
          hvcurveto
          hintmask 1011110110100000
          81 callgsubr
          vhcurveto
          hintmask 1011110101100000
          0 callsubr
          223 -550 rmoveto
          -9 callsubr
          hintmask 1011111010100000
          -105 callgsubr
          hintmask 0111111010100000
          -52 callsubr
          hintmask 1011110110100000
          -61 callsubr
          hintmask 0111111010100000
          -89 callsubr
        </CharString>
        <CharString name="asciitilde">
          38 endchar
        </CharString>
        <CharString name="asterisk">
          -179 363.600006104 99.0599975586 29.6900024414 99.0599975586 hstemhm
          146 94 hintmask 01100000
          336 449 rmoveto
          -26 16 -43 -4 -53 16 53 17 45 -2 24 14 21 12 -2 24 -12 21 -13 22 -21 14 -20 -12 -26 -15 -19 -38 -40 -38 rrcurveto
          12 54 24 38 28 vvcurveto
          24 -22 10 -24 -25 -23 -11 -24 -29 24 -36 12 -53 vhcurveto
          -40 37 -21 39 -24 14 -21 12 -20 -13 -12 -21 rrcurveto
          hintmask 11100000
          -13 -23 -1 -25 20 -11 26 -16 43 4 53 -16 -53 -17 -45 2 -24 -14 -21 -12 2 -24 12 -21 13 -22 21 -14 20 12 26 15 19 38 40 38 rrcurveto
          -12 -54 -24 -38 -28 vvcurveto
          -24 22 -10 24 25 23 11 24 29 -24 36 -12 53 vhcurveto
          40 -37 21 -39 24 -14 21 -12 20 13 12 21 rrcurveto
          hintmask 01100000
          13 23 1 25 -20 11 rrcurveto
          endchar
        </CharString>
        <CharString name="atilde">
          -47 callsubr
          67 78 -16 78 29 callsubr
          -63 20 161 132 -15 21 51 26 hintmask 1011011010100000
          170 574 rmoveto
          hintmask 1011101001100000
          -23 callgsubr
          hintmask 1011010110100000
          3 callgsubr
          hintmask 1011011010100000
          57 callgsubr
          292 -479 rmoveto
          -97 callgsubr
          hintmask 0111011010100000
          -52 callsubr
          hintmask 1011011010100000
          -61 callsubr
          hintmask 0111011010100000
          -89 callsubr
        </CharString>
        <CharString name="b">
          -6 -10 27 -17 26 371 48 180 25 hstemhm
          72 132 182 142 hintmask 01111100
          354 445 rmoveto
          -59 -54 -30 -72 -37 hvcurveto
          307 -189 -25 57 -547 vlineto
          71 callsubr
          158 vlineto
          hintmask 10111100
          8 69 rlineto
          -54 34 51 -25 57 hhcurveto
          103 102 80 159 hvcurveto
          hintmask 01111100
          141 -81 75 -93 vhcurveto
          hintmask 10111100
          -56 -428 rmoveto
          -49 -45 51 128 51 callsubr
          hvcurveto
          endchar
        </CharString>
        <CharString name="backslash">
          -106 -155 865 hstem
          15 426 vstem
          441 -155 rmoveto
          -341 865 rlineto
          -85 hlineto
          341 -865 rlineto
          endchar
        </CharString>
        <CharString name="braceleft">
          38 endchar
        </CharString>
        <CharString name="braceright">
          38 endchar
        </CharString>
        <CharString name="bracketleft">
          -186 -136 781 hstem
          70 281 vstem
          351 -108 rmoveto
          -28 -281 781 281 -28 -145 -723 vlineto
          endchar
        </CharString>
        <CharString name="bracketright">
          -173 -136 781 hstem
          38 281 vstem
          38 -108 rmoveto
          145 2 rlineto
          723 -145 28 281 -781 -281 vlineto
          endchar
        </CharString>
        <CharString name="breve">
          -62 503 139 hstem
          120 261 vstem
          140 642 rmoveto
          -47 10 56 -9 48 hhcurveto
          49 47 7 49 10 hvcurveto
          21 hlineto
          -68 -32 -71 -98 -97 -34 71 68 vhcurveto
          endchar
        </CharString>
        <CharString name="bullet">
          -217 112 232 hstem
          56 233 vstem
          172 112 rmoveto
          64 53 50 64 65 -53 53 -64 -65 -51 -53 -65 -64 51 -50 65 hvcurveto
          endchar
        </CharString>
        <CharString name="c">
          1 callgsubr
          259 445 -26 callgsubr
        </CharString>
        <CharString name="cacute">
          1 callgsubr
          162 -70 callgsubr
          112 -58 -26 callgsubr
        </CharString>
        <CharString name="caron">
          -62 501 159 hstem
          99 302 vstem
          386 660 rmoveto
          -48 -27 -53 -23 -34 -13 -85 callsubr
          49 17 51 88 84 hvcurveto
          endchar
        </CharString>
        <CharString name="ccaron">
          1 callgsubr
          249 -78 callgsubr
          173 -393 rmoveto
          -31 callgsubr
          47 callgsubr
          -156 104 -70 126 56 callsubr
          endchar
        </CharString>
        <CharString name="ccedilla">
          -107 27 callsubr
          39 28 402 25 hstemhm
          28 142 94 112 -64.4299926758 130.429992676 hintmask 11111100
          258 -10 rmoveto
          56 callsubr
          -25 7 rlineto
          -12 callgsubr
          hintmask 11111010
          -8 callsubr
          47 callgsubr
          -132 74 -70 100 -19 hvcurveto
          -40 -80 rlineto
          hintmask 11111100
          -90 callsubr
          23 51 rlineto
          -1 10 10 0 11 hhcurveto
          endchar
        </CharString>
        <CharString name="cedilla">
          -62 27 callsubr
          hstem
          257 112 vstem
          201 8 rmoveto
          -46 -93 -59 callsubr
        </CharString>
        <CharString name="circumflex">
          -62 500 151 hstem
          111 278 vstem
          389 519 rmoveto
          -84 callgsubr
          -3 callsubr
          rrcurveto
          endchar
        </CharString>
        <CharString name="colon">
          -361 34 146 82 141 hstem
          30 141 vstem
          100 262 -34 callgsubr
          -228 vmoveto
          39 32 30 40 39 -32 37 -39 -39 -31 -37 -39 -40 31 -30 39 hvcurveto
          endchar
        </CharString>
        <CharString name="comma">
          -375 -117 253 hstem
          25 142 vstem
          90 -117 -90 callgsubr
        </CharString>
        <CharString name="czechcaron">
          -62 406 253 hstem
          179 142 vstem
          244 406 -90 callgsubr
        </CharString>
        <CharString name="d">
          9 41 callgsubr
          hintmask 01111100
          556 hmoveto
          22 -2 callsubr
          0 callgsubr
          hintmask 10111100
          -113 36 -8 callgsubr
        </CharString>
        <CharString name="dcaron">
          42 41 callgsubr
          21 77 callgsubr
          hintmask 01111110
          575 659 -100 callgsubr
          hintmask 01111100
          -43 -634 rmoveto
          0 callgsubr
          184 hlineto
          22 -2 callsubr
          hintmask 10111100
          -273 11 -8 callgsubr
        </CharString>
        <CharString name="dcroat">
          9 -10 46 -36 25 388 33 63 33 83 51 callgsubr
          hintmask 01111110
          556 509 rmoveto
          33 -70 108 -218 -25 86 -83 -168 -33 168 -106 vlineto
          34 callgsubr
          hintmask 10111110
          38 callgsubr
          hintmask 01111110
          14 -94 rlineto
          184 hlineto
          22 -2 callsubr
          -46 484 hlineto
          hintmask 10111110
          -227 -473 -8 callgsubr
        </CharString>
        <CharString name="dieresis">
          -62 503 -20 callgsubr
          endchar
        </CharString>
        <CharString name="dotaccent">
          -279 488 148 hstem
          67 149 vstem
          141 -54 callsubr
          endchar
        </CharString>
        <CharString name="dotlessi">
          13 callgsubr
          268 hmoveto
          -62 callsubr
        </CharString>
        <CharString name="e">
          -55 callgsubr
          273 19 -103 callsubr
        </CharString>
        <CharString name="eacute">
          -55 callgsubr
          334 -86 callgsubr
          -61 -533 -103 callsubr
        </CharString>
        <CharString name="ecaron">
          -55 callgsubr
          236 -78 callgsubr
          37 -482 -103 callsubr
        </CharString>
        <CharString name="ecircumflex">
          -55 callgsubr
          236 -58 callsubr
          37 -539 -103 callsubr
        </CharString>
        <CharString name="edieresis">
          -59 callgsubr
          56 75 callgsubr
          23 142 -92 28 callgsubr
          -87 137 hintmask 00000000
          hintmask 11110110
          141 -66 callgsubr
          -53 -482 rmoveto
          hintmask 11101001
          -104 callsubr
          hintmask 11110110
          -2 callgsubr
          hintmask 11101001
          -14 callsubr
        </CharString>
        <CharString name="edotaccent">
          -59 callgsubr
          43 82 callgsubr
          23 142 -5 149 -1 137 70 callsubr
          234 -54 callsubr
          39 -469 rmoveto
          hintmask 11101010
          -104 callsubr
          hintmask 11110100
          -2 callgsubr
          hintmask 11101010
          -14 callsubr
        </CharString>
        <CharString name="egrave">
          -55 callgsubr
          143 552 -83 callgsubr
          130 -533 -103 callsubr
        </CharString>
        <CharString name="eight">
          -22 -11 31 563 28 hstemhm
          45 36 -31 123 197 125 -87 36 hintmask 11100100
          370 339 rmoveto
          49 35 25 48 47 vvcurveto
          93 -88 49 -98 vhcurveto
          hintmask 11010100
          -102 -106 -54 -108 -73 46 -49 58 -38 hvcurveto
          hintmask 11101000
          -71 -34 -38 -55 -56 vvcurveto
          -79 71 -76 141 117 121 59 119 vhcurveto
          hintmask 11100100
          83 -58 49 -67 40 vhcurveto
          hintmask 11010100
          -93 244 rmoveto
          63 68 -39 -74 -41 -22 -44 -45 -31 hvcurveto
          -82 45 -86 34 62 vvcurveto
          59 50 29 54 vhcurveto
          hintmask 11101000
          -36 -563 rmoveto
          -77 -83 44 85 45 31 51 71 26 hvcurveto
          88 -51 99 -35 -65 vvcurveto
          -68 -62 -32 -67 vhcurveto
          endchar
        </CharString>
        <CharString name="ellipsis">
          38 -5 141 hstem
          45 141 52 141 52 141 vstem
          115 -5 -34 callgsubr
          193 hmoveto
          -61 callgsubr
          193 hmoveto
          -61 callgsubr
          endchar
        </CharString>
        <CharString name="emacron">
          -59 callgsubr
          95 55 7 callgsubr
          397 595 21 callsubr
          -124 -521 -103 callsubr
        </CharString>
        <CharString name="emdash">
          248 195 45 hstem
          50 710 vstem
          50 240 rmoveto
          -45 710 45 vlineto
          endchar
        </CharString>
        <CharString name="endash">
          48 195 45 hstem
          50 510 vstem
          50 240 rmoveto
          -45 510 45 vlineto
          endchar
        </CharString>
        <CharString name="eogonek">
          -93 67 callsubr
          29 -19 10 211.5 74 callgsubr
          23 142 14 107 22 137 hintmask 11011101
          273 19 rmoveto
          -98 callsubr
          17 16 1 3 16 vhcurveto
          hintmask 10111111
          -80 -23 -40 -41 -48 15 callgsubr
          10 -18 -2 -17 -3 -15 -3 rlinecurve
          hintmask 11011101
          50 16 38 34 18 54 -25 5 rcurveline
          -2 callgsubr
          -14 callsubr
        </CharString>
        <CharString name="eth">
          38 endchar
        </CharString>
        <CharString name="exclam">
          -328 -5 141 hstemhm
          48 141 -89 34 hintmask 10100000
          194 541 rmoveto
          38 -18 31 -58 -59 -19 -33 -41 vhcurveto
          -83 60 -71 -190 vvcurveto
          34 hlineto
          190 60 76 83 vvcurveto
          hintmask 11000000
          -76 -546 -34 callgsubr
          endchar
        </CharString>
        <CharString name="exclamdown">
          -273 304 141 hstemhm
          50 141 -86 34 55 callgsubr
          121 36 callgsubr
          hintmask 10100000
          -76 -546 rmoveto
          -38 18 -31 58 59 19 33 41 vhcurveto
          83 -60 71 190 vvcurveto
          -34 hlineto
          -190 -60 -76 -83 vvcurveto
          endchar
        </CharString>
        <CharString name="f">
          -207 -15 callgsubr
          197 23 hstem
          101 64 callsubr
          302 650 rmoveto
          -22 callsubr
          42 -46 47 -98 hvcurveto
          endchar
        </CharString>
        <CharString name="fi">
          76 75 callsubr
          -9 23 hstemhm
          101 132 200 132 hintmask 11011100
          282 627 rmoveto
          50 -16 -115 73 hhcurveto
          hintmask 11101100
          17 15 6 9 10 hvcurveto
          -24 12 25 -15 28 hhcurveto
          -28 callsubr
          -27 -23 -15 -21 -13 hvcurveto
          hintmask 11011100
          28 -20 -43 22 -68 hhcurveto
          -47 callgsubr
          317 -601 21 callgsubr
        </CharString>
        <CharString name="five">
          -39 -10 27 312 41 127 104 hstemhm
          43 131.490005493 -81.4900054932 35 230 135 -77 28 hintmask 11101100
          275 370 rmoveto
          -53 -48 -14 -28 -46 hvcurveto
          178 vlineto
          -6 54 51 -3 39 hhcurveto
          hintmask 11101010
          151 21 26 126 hvcurveto
          -28 hlineto
          -37 -13 -18 -11 -70 hhcurveto
          -45 -76 5 4 -101 hvcurveto
          -299 vlineto
          35 -26 rlineto
          32 39 39 12 35 hhcurveto
          hintmask 11110100
          67 50 -52 -97 -76 -31 -87 -87 hvcurveto
          -125 119 165 -125 hhcurveto
          -43 -23 -28 -36 -89 88 -39 105 125 132 61 139 hvcurveto
          hintmask 11101100
          121 -100 59 -118 vhcurveto
          endchar
        </CharString>
        <CharString name="fl">
          112 54 callsubr
          hstem
          101 132 218 64 callsubr
          375 26 rmoveto
          -26 284 vlineto
          10 callgsubr
          -11 hlineto
          7 -20 -24 4 -29 hhcurveto
          -22 callsubr
          22 -13 24 -26 17 hvcurveto
          44 -546 hlineto
          -42 -34 -10 -42 vhcurveto
          endchar
        </CharString>
        <CharString name="four">
          -30 0 27 125.5 30 hstem
          271 134 vstem
          492 151 rmoveto
          30 -87 212 -23 vlineto
          -17 -43 rlineto
          -43 -17 -22 -5 -41 hhcurveto
          -14 -120 hlineto
          -221 1 rlineto
          137 116 218 147 99 vvcurveto
          43 -34 22 -42 -152 137 -180 -247 -309 vhcurveto
          6 -30 260 -1 rlineto
          -125 -107 -27 328 vlineto
          -73 callsubr
          -63 124 hlineto
          endchar
        </CharString>
        <CharString name="fraction">
          38 endchar
        </CharString>
        <CharString name="g">
          30 callsubr
          209 132 -10 48 74 callsubr
          hintmask 1110110001000000
          451 497 61 callgsubr
          hintmask 1111010001000000
          8 callsubr
          hintmask 1111001001000000
          43 callgsubr
          hintmask 1111000101000000
          -5 callgsubr
          hintmask 1110101010000000
          -53 callsubr
          hintmask 1110110001000000
          78 callgsubr
          hintmask 1111010010000000
          -6 callgsubr
          hintmask 1111000101000000
          -26 callsubr
        </CharString>
        <CharString name="gbreve">
          22 callsubr
          6 83 50 callsubr
          25 20 164 132 -76 21 45 48 74 callsubr
          hintmask 1111010001011000
          251 503 -43 callgsubr
          hintmask 1110101000011000
          200 -6 61 callgsubr
          hintmask 1111011000011000
          8 callsubr
          hintmask 1111010100011000
          43 callgsubr
          hintmask 1111010010011000
          -5 callgsubr
          hintmask 1110100100100000
          -53 callsubr
          hintmask 1110101000011000
          78 callgsubr
          hintmask 1111011000100000
          -6 callgsubr
          hintmask 1111010010011000
          -26 callsubr
        </CharString>
        <CharString name="germandbls">
          38 endchar
        </CharString>
        <CharString name="grave">
          -62 481 173 hstem
          165 222 vstem
          372 481 -57 callsubr
          endchar
        </CharString>
        <CharString name="guillemotleft">
          -141 67 callgsubr
          391 vstem
          136 205 rmoveto
          20 60 callsubr
          -26 -31 rrcurveto
          -11 33 callsubr
          24 -28 81 -66 59 -60 77 callsubr
          -27 69 -21 46 rrcurveto
          189 hmoveto
          21 60 callsubr
          42 callgsubr
          81 -66 59 -60 77 callsubr
          -27 69 -22 46 rrcurveto
          endchar
        </CharString>
        <CharString name="guillemotright">
          -141 67 callgsubr
          391 vstem
          96 205 rmoveto
          -22 -46 -27 62 callgsubr
          60 81 66 41 callsubr
          -83 65 -55 59 71 callgsubr
          -68 21 -45 rrcurveto
          189 hmoveto
          -21 -46 -27 62 callgsubr
          60 81 66 24 28 rrcurveto
          11 34 callsubr
          -26 31 -83 65 -55 59 71 callgsubr
          -68 20 -45 rrcurveto
          endchar
        </CharString>
        <CharString name="guilsinglleft">
          -321 67 callgsubr
          211 vstem
          135 205 rmoveto
          31 55 28 58 32 60 -21 17 rcurveline
          -55 -62 -93 -62 42 callgsubr
          91 -64 59 -62 77 callsubr
          -37 69 -22 46 rrcurveto
          endchar
        </CharString>
        <CharString name="guilsinglright">
          -321 67 callgsubr
          211 vstem
          106 205 rmoveto
          -22 -46 -37 62 callgsubr
          62 91 64 41 callsubr
          -93 62 -55 62 71 callgsubr
          -58 31 -55 rrcurveto
          endchar
        </CharString>
        <CharString name="h">
          0 0 26 366 53 179 26 hstem
          79 132 146 64 callsubr
          318 26 rmoveto
          -26 229 -4 callsubr
          119 -65 44 -72 -63 -54 -39 -51 -24 vhcurveto
          295 -191 -26 59 -546 vlineto
          -42 -24 -10 -35 vhcurveto
          -26 240 -33 callgsubr
          -25 240 hlineto
          90 49 36 33 40 24 -34 -59 vhcurveto
          -221 vlineto
          -40 -3 -12 -36 vhcurveto
          endchar
        </CharString>
        <CharString name="hungarumlaut">
          -62 532.529998779 58 callgsubr
          hstem
          98 400 vstem
          113 501 -72 callgsubr
          endchar
        </CharString>
        <CharString name="hyphen">
          -212 40 callsubr
        </CharString>
        <CharString name="i">
          -279 75 callsubr
          hstemhm
          67 52 callsubr
          hintmask 11110000
          141 -54 callsubr
          hintmask 11001000
          127 -488 rmoveto
          -62 callsubr
        </CharString>
        <CharString name="iacute">
          13 callgsubr
          56 -70 callgsubr
          227 -503 rmoveto
          -62 callsubr
        </CharString>
        <CharString name="icircumflex">
          13 callgsubr
          267 500 rmoveto
          14 19 rlineto
          -84 callgsubr
          -3 callsubr
          rrcurveto
          -23 -474 21 callgsubr
        </CharString>
        <CharString name="idieresis">
          14 callgsubr
          74 128 hstemhm
          -8 129 -43 132 -49 129 70 callsubr
          57 504 rmoveto
          34 30 28 35 36 -30 29 -34 -36 -29 -29 -36 -35 29 -28 36 hvcurveto
          167 hmoveto
          36 30 28 35 36 -30 29 -36 -34 -29 -29 -36 -35 29 -28 34 hvcurveto
          hintmask 11001000
          44 -504 rmoveto
          -62 callsubr
        </CharString>
        <CharString name="igrave">
          13 callgsubr
          235 481 -57 callsubr
          33 -481 rmoveto
          -62 callsubr
        </CharString>
        <CharString name="imacron">
          14 callgsubr
          110 55 hstemhm
          14 260 -196 72 callgsubr
          hintmask 11110000
          14 595 rmoveto
          -55 260 55 vlineto
          hintmask 11101000
          -6 -595 rmoveto
          -62 callsubr
        </CharString>
        <CharString name="iogonek">
          -279 66 callsubr
          -15 callsubr
          58 82 callgsubr
          67 107 -107 52 callsubr
          hintmask 11110100
          141 -54 callsubr
          hintmask 11111000
          120 -627 -13 callsubr
          hintmask 11110010
          -66 callsubr
          189 vlineto
          hintmask 11111000
          12 callsubr
        </CharString>
        <CharString name="j">
          -267 -195 28 571 26 58 82 callgsubr
          -52 115.729995728 28.2700042725 52 callsubr
          hintmask 11101000
          166 -54 callsubr
          hintmask 11010100
          69 -58 rmoveto
          46 callgsubr
          -326 hlineto
          -79 8 -81 -38 vvcurveto
          -33 -3 -14 -16 vhcurveto
          -43 33 112 -75 hhcurveto
          -38 -21 -25 -29 -39 39 -47 87 84 77 50 181 hvcurveto
          endchar
        </CharString>
        <CharString name="k">
          -35 54 callsubr
          hstem
          91 132 115 168 vstem
          249 211 rmoveto
          59 callsubr
          -24 callgsubr
          endchar
        </CharString>
        <CharString name="l">
          47 callsubr
          hstem
          96 64 callsubr
          304 hmoveto
          -30 callgsubr
          endchar
        </CharString>
        <CharString name="lacute">
          47 callsubr
          60.5299987793 129.470001221 hstem
          96 64 callsubr
          51 681 rmoveto
          79 29 77 5 34 20 17 10 8 15 1 15 3 30 -23 32 -31 3 -10 1 -10 -2 -12 -7 -36 -22 -24 -44 -86 -62 rrcurveto
          266 -704 rmoveto
          -30 callgsubr
          endchar
        </CharString>
        <CharString name="lcaron">
          -190 0 26 598 26 hstemhm
          96 132 23 77 callgsubr
          hintmask 11110000
          316 406 -93 callgsubr
          hintmask 11100000
          9 -422 rmoveto
          -30 callgsubr
          endchar
        </CharString>
        <CharString name="lslash">
          47 callsubr
          hstem
          96 64 callsubr
          280 26 rmoveto
          -52 314 hlineto
          110 61 -17 31 -93 -51 rlineto
          269 -208 -26 76 -316 vlineto
          -109 -60 17 -32 92 51 rlineto
          -189 20 callgsubr
          endchar
        </CharString>
        <CharString name="m">
          246 48 callgsubr
          -49 49 -41 26 hstemhm
          78 -7 callsubr
          131.5 131 131 131 hintmask 10011110
          560 26 rmoveto
          -26 233 11 callsubr
          -33 261 hlineto
          hintmask 10101110
          102 -61 56 -69 -61 -49 -29 -65 -33 vhcurveto
          hintmask 11001110
          61 -20 -48 33 -51 hhcurveto
          -58 -46 -26 -62 -31 hvcurveto
          hintmask 10011110
          -5 73 -29 callgsubr
          232 -33 callgsubr
          -18 hlineto
          1 259 rlineto
          hintmask 11001110
          72 6 35 36 32 hhcurveto
          30 28 -31 -63 hvcurveto
          -221 vlineto
          -40 -8 -12 -36 vhcurveto
          -26 217 11 callsubr
          -17 256 hlineto
          7 vlineto
          hintmask 10101110
          71 6 33 36 32 hhcurveto
          31 29 -33 -64 hvcurveto
          -221 vlineto
          hintmask 10011110
          -40 -8 -12 -36 vhcurveto
          endchar
        </CharString>
        <CharString name="macron">
          36 callsubr
        </CharString>
        <CharString name="n">
          -12 callsubr
          311 26 -81 callgsubr
        </CharString>
        <CharString name="nacute">
          -12 callsubr
          380 -86 callgsubr
          -69 -526 -81 callgsubr
        </CharString>
        <CharString name="ncaron">
          -12 callsubr
          282 -78 callgsubr
          29 -475 -81 callgsubr
        </CharString>
        <CharString name="nine">
          2 -10 25 229 33 307 26 hstemhm
          35 135 -115 134.880004883 179.119995117 140 hintmask 11110100
          272 610 rmoveto
          -152 -85 -79 -111 -108 81 -68 136 41 40 11 23 36 hvcurveto
          -144 -2 -18 -119 -97 hhcurveto
          hintmask 11101100
          -117 113 163 -126 hhcurveto
          -44 -23 -30 -32 -76 92 -50 99 178 85 158 176 hvcurveto
          hintmask 11110100
          189 -89 97 -148 vhcurveto
          -6 -333 rmoveto
          -78 -18 76 84 80 20 67 77 72 30 -73 -85 -97 -44 -52 -59 hvcurveto
          endchar
        </CharString>
        <CharString name="ntilde">
          0 48 callgsubr
          -41 26 82 78 -16 78 hstemhm
          78 -7 callsubr
          -84.5 20 211 132 -65 21 hintmask 1010110100000000
          204 574 rmoveto
          hintmask 1011010010000000
          -23 callgsubr
          hintmask 1010101100000000
          3 callgsubr
          hintmask 1010110100000000
          57 callgsubr
          107 -548 rmoveto
          -10 callgsubr
          hintmask 1100110100000000
          4 callsubr
          hintmask 1010110100000000
          -49 callsubr
          hintmask 1100110100000000
          -16 callgsubr
          hintmask 1010110100000000
          58 callsubr
          endchar
        </CharString>
        <CharString name="numbersign">
          17 192 58 110 58 hstem
          60 459 vstem
          519 360 rmoveto
          58 -111 vlineto
          69 callgsubr
          -124 hlineto
          69 callgsubr
          -131 -58 124 hlineto
          -15 -110 rlineto
          -122 -58 114 65 callgsubr
          124 65 callgsubr
          128 58 -120 hlineto
          15 110 rlineto
          -55 -110 rmoveto
          -124 hlineto
          15 110 rlineto
          124 hlineto
          endchar
        </CharString>
        <CharString name="o">
          -40 callsubr
        </CharString>
        <CharString name="oacute">
          -44 callgsubr
          185 -70 callgsubr
          321 -280 -101 callgsubr
        </CharString>
        <CharString name="ocircumflex">
          -44 callgsubr
          272 -58 callsubr
          -7 -113 rmoveto
          -75 callgsubr
          6 callgsubr
          hvcurveto
          -6 -430 -83 callsubr
          endchar
        </CharString>
        <CharString name="odieresis">
          5 callsubr
          56 75 callgsubr
          64 callgsubr
          -63 28 callgsubr
          -82 77 callgsubr
          hintmask 11101100
          177 -66 callgsubr
          hintmask 11010010
          129 -278 -101 callgsubr
        </CharString>
        <CharString name="oe">
          428 -10 25 -25 -58 callgsubr
          hstemhm
          64 callgsubr
          177 142 53 16 callgsubr
          hintmask 10111111
          265 445 rmoveto
          -75 callgsubr
          6 callgsubr
          hvcurveto
          hintmask 01111111
          529 -426 -99 callgsubr
          hintmask 10111111
          -535 -4 -83 callsubr
          497 405 -84 callsubr
          endchar
        </CharString>
        <CharString name="ogonek">
          -62 -192 30 hstem
          120 107 vstem
          314 -139 -13 callsubr
          -1 10 rlineto
          -133 -16 -67 -50 -62 -41 callgsubr
          endchar
        </CharString>
        <CharString name="ograve">
          -44 callgsubr
          364 481 -57 callsubr
          127 -258 -101 callgsubr
        </CharString>
        <CharString name="ohungarumlaut">
          5 callsubr
          87.5299987793 58 callgsubr
          -25 callsubr
          126 501 -72 callgsubr
          204 -305 -101 callgsubr
        </CharString>
        <CharString name="omacron">
          5 callsubr
          95 55 -25 callsubr
          113 595 44 callgsubr
          58 -372 -101 callgsubr
        </CharString>
        <CharString name="one">
          -20 callsubr
        </CharString>
        <CharString name="onehalf">
          38 endchar
        </CharString>
        <CharString name="onequarter">
          38 endchar
        </CharString>
        <CharString name="ordfeminine">
          -72 callsubr
        </CharString>
        <CharString name="ordmasculine">
          -40 callsubr
        </CharString>
        <CharString name="oslash">
          -44 callgsubr
          430 381 rmoveto
          60 60 -26 24 -61 -61 rlineto
          26 -36 -47 15 -55 hhcurveto
          -140 -95 -94 -130 -55 16 -49 29 -39 hvcurveto
          -67 -67 26 -25 65 64 rlineto
          -37 39 54 -23 64 hhcurveto
          140 95 103 130 63 -22 55 -39 40 hvcurveto
          -258 -164 rmoveto
          135 16 68 72 47 23 -26 -52 11 vhcurveto
          -168 -167 rlineto
          -1 13 0 14 15 vvcurveto
          87 -202 rmoveto
          -56 -21 38 74 -7 hvcurveto
          172 171 rlineto
          1 -23 1 -25 -29 vvcurveto
          -135 -18 -71 -72 vhcurveto
          endchar
        </CharString>
        <CharString name="otilde">
          -44 callgsubr
          116 522 -36 callgsubr
          355 -296 -101 callgsubr
        </CharString>
        <CharString name="p">
          0 -190 26 154 27 380 48 -41 26 hstemhm
          79 132 181 142 hintmask 11011100
          257 -164 rmoveto
          -46 200 hlineto
          -31 24 43 -15 47 hhcurveto
          110 99 84 156 hvcurveto
          hintmask 11101100
          133 -72 82 -98 -69 -62 -41 -70 -24 vhcurveto
          hintmask 11011100
          -5 96 rlineto
          -182 -26 57 -516 hlineto
          71 callsubr
          260 11 callsubr
          -47 360 rmoveto
          hintmask 11101100
          51 callsubr
          vhcurveto
          hintmask 11011100
          -49 -45 51 128 hvcurveto
          endchar
        </CharString>
        <CharString name="parenleft">
          38 endchar
        </CharString>
        <CharString name="parenright">
          38 endchar
        </CharString>
        <CharString name="period">
          -371 -5 141 hstem
          25 141 vstem
          95 -5 -34 callgsubr
          endchar
        </CharString>
        <CharString name="periodcentered">
          -313 154 148 hstem
          50 149 vstem
          124 154 -76 callsubr
          endchar
        </CharString>
        <CharString name="q">
          6 -190 26 154 46 368 26 -17 32 hstemhm
          28 142 182 132 hintmask 11101100
          548 404 rmoveto
          26 -186 vlineto
          hintmask 11011100
          -3 -30 rlineto
          30 -33 -43 15 -45 hhcurveto
          -106 -104 -78 -159 -143 89 -75 93 57 56 31 65 29 hvcurveto
          -198 vlineto
          71 callsubr
          253 vlineto
          -21 callsubr
          -40 hlineto
          hintmask 11101100
          568 vlineto
          -227 -368 rmoveto
          -54 -33 66 117 hvcurveto
          hintmask 11011100
          24 callsubr
          vhcurveto
          hintmask 11101100
          -127 -39 -75 -58 vhcurveto
          endchar
        </CharString>
        <CharString name="question">
          -95 -5 141 448 26 hstemhm
          50 120.779998779 -28.7799987793 141 -92 34 60 132 hintmask 01001100
          191 192 rmoveto
          34 hlineto
          156 192 -17 152 vvcurveto
          91 -97 36 -96 vhcurveto
          hintmask 01101100
          -83 -91 -34 -69 -30 20 -24 40 hvcurveto
          106 -91 131 99 hhcurveto
          30 31 -19 -65 hvcurveto
          hintmask 01001100
          -179 -94 37 -166 vvcurveto
          hintmask 11010000
          21 -197 -34 callgsubr
          endchar
        </CharString>
        <CharString name="questiondown">
          -70 -170 26 448 141 hstemhm
          35 132 2 141 -83 34 20.1900024414 120.809997559 hintmask 00000000
          hintmask 11010000
          240 36 callgsubr
          hintmask 10101000
          21 -197 rmoveto
          -34 hlineto
          -156 -192 17 -152 vvcurveto
          -91 97 -36 96 vhcurveto
          hintmask 10101100
          83 91 34 69 30 -20 24 -40 hvcurveto
          -106 91 -131 -99 hhcurveto
          -30 -31 19 65 hvcurveto
          hintmask 10101000
          179 94 -37 166 vvcurveto
          endchar
        </CharString>
        <CharString name="quotedbl">
          -254 431 229 hstem
          25 112 34 112 vstem
          137 617 rmoveto
          33 callgsubr
          146 hmoveto
          33 callgsubr
          endchar
        </CharString>
        <CharString name="quotedblbase">
          -226 -105 37 callgsubr
          82 -105 -40 callgsubr
        </CharString>
        <CharString name="quotedblleft">
          -226 417 37 callgsubr
          93 658 12 callgsubr
          hintmask 11100000
          141 15 12 callgsubr
          endchar
        </CharString>
        <CharString name="quotedblright">
          -226 414 37 callgsubr
          82 414 -40 callgsubr
        </CharString>
        <CharString name="quoteleft">
          -375 414 253 hstem
          20 142 vstem
          94 414 6 callsubr
          endchar
        </CharString>
        <CharString name="quoteright">
          -324 407 253 hstem
          26 142 vstem
          91 407 -90 callgsubr
        </CharString>
        <CharString name="quotesinglbase">
          -387 -94 230 hstem
          20 136 vstem
          92 -94 rmoveto
          37 43 27 58 49 vvcurveto
          54 -35 26 -35 -33 -33 -24 -44 -5 callsubr
          -14 -11 -22 -18 -22 vhcurveto
          endchar
        </CharString>
        <CharString name="r">
          23 callsubr
          hintmask 00000000
          hintmask 11010000
          337 438 -67 callgsubr
        </CharString>
        <CharString name="racute">
          23 callsubr
          hintmask 10110000
          299 -86 callgsubr
          hintmask 11010000
          38 -114 -67 callgsubr
        </CharString>
        <CharString name="rcaron">
          23 callsubr
          hintmask 10110000
          201 -78 callgsubr
          hintmask 11010000
          136 -63 -67 callgsubr
        </CharString>
        <CharString name="ring">
          -62 482 78 callsubr
          hstem
          125 77 81 77 vstem
          360 578 rmoveto
          25 callsubr
          81 callgsubr
          80 40 43 53 vhcurveto
          -118 -72 rmoveto
          26 callsubr
          27 callgsubr
          hvcurveto
          endchar
        </CharString>
        <CharString name="s">
          -143 -10 461 hstemhm
          81 188 -109 53 callgsubr
          81 128 -48 callsubr
        </CharString>
        <CharString name="sacute">
          -143 -10 664 76 callgsubr
          hintmask 10100000
          124 -70 callgsubr
          hintmask 11000000
          -28 -375 -48 callsubr
        </CharString>
        <CharString name="scaron">
          -143 -10 28 -28 152 279 24 hstemhm
          40 120 -119 40 188 120 -60 39 hintmask 10101010
          211 -78 callgsubr
          hintmask 10110100
          -51 -145 rmoveto
          43 38 22 39 vhcurveto
          hintmask 10110010
          44 48 -27 -48 hvcurveto
          1 -20 rlineto
          38 125 hlineto
          -20 -6 -9 -25 hvcurveto
          18 -28 -46 10 -48 hhcurveto
          -97 -83 -40 -88 hvcurveto
          hintmask 10110100
          -147 229 27 -122 vvcurveto
          -30 -14 -27 -59 vhcurveto
          hintmask 10101010
          -47 -68 17 93 hvcurveto
          hintmask 01101010
          14 -40 -152 vlineto
          22 5 5 26 hvcurveto
          hintmask 10101100
          -22 43 56 -9 49 hhcurveto
          112 61 47 82 hvcurveto
          hintmask 10110100
          160 -229 -28 105 vvcurveto
          endchar
        </CharString>
        <CharString name="semicolon">
          -375 232 141 hstem
          25 142 vstem
          95 232 -34 callgsubr
          -5 -336 -90 callgsubr
        </CharString>
        <CharString name="seven">
          -77 503 100 hstem
          41 24 37 170.729995728 vstem
          42 603 rmoveto
          49 callsubr
          41 16 21 2 41 hhcurveto
          233 hlineto
          -172 -241 -120 -120 -92 vvcurveto
          -43 34 -22 42 142 -125 186 402 285 vhcurveto
          30 vlineto
          endchar
        </CharString>
        <CharString name="six">
          12 -10 26 319 31 219 24 hstemhm
          60 140 177.619995117 133.380004883 -112 135 hintmask 11110100
          330 366 rmoveto
          -45 -45 -12 -25 -40 hvcurveto
          143 4 25 113 91 hhcurveto
          hintmask 11111000
          116 -121 -149 128 hhcurveto
          41 27 30 36 55 -71 52 -110 -197 -73 -153 -160 -224 113 -82 121 hvcurveto
          hintmask 11110100
          162 78 99 96 92 -68 89 -136 hvcurveto
          -32 -350 rmoveto
          -54 -44 48 109 111 48 51 56 53 42 -45 -106 -118 -46 -50 -55 hvcurveto
          endchar
        </CharString>
        <CharString name="slash">
          -131 -155 865 hstem
          -10 426 vstem
          -10 -155 rmoveto
          85 hlineto
          341 865 rlineto
          -85 hlineto
          endchar
        </CharString>
        <CharString name="space">
          -362 endchar
        </CharString>
        <CharString name="t">
          -191 -11 30 380 26 hstem
          89 64 callsubr
          -13 callgsubr
          endchar
        </CharString>
        <CharString name="tcaron">
          -191 -11 54 callgsubr
          8 77 callgsubr
          hintmask 11110000
          286 547 rmoveto
          -94 callgsubr
          -74 callgsubr
          vhcurveto
          hintmask 11100000
          -18 -528 rmoveto
          -37 callsubr
          -27 5 rlineto
          57 callsubr
          endchar
        </CharString>
        <CharString name="thorn">
          38 endchar
        </CharString>
        <CharString name="three">
          -71 callgsubr
        </CharString>
        <CharString name="threequarters">
          38 endchar
        </CharString>
        <CharString name="tilde">
          -62 512 140 hstem
          102 319 vstem
          102 522 -36 callgsubr
          endchar
        </CharString>
        <CharString name="two">
          -63 callgsubr
        </CharString>
        <CharString name="u">
          -36 callsubr
          537 hmoveto
          -81 callsubr
        </CharString>
        <CharString name="uacute">
          -36 callsubr
          378 -86 callgsubr
          159 -552 rmoveto
          -81 callsubr
        </CharString>
        <CharString name="ucircumflex">
          -36 callsubr
          280 -58 callsubr
          257 -558 rmoveto
          -81 callsubr
        </CharString>
        <CharString name="udieresis">
          -7 callgsubr
          71 134 45 callgsubr
          -83 28 callgsubr
          -92.5 -7 callsubr
          hintmask 00000000
          hintmask 01110110
          185 -66 callgsubr
          hintmask 01101001
          167 -501 -17 callsubr
          hintmask 10101001
          -92 callgsubr
          hintmask 01101001
          48 callsubr
        </CharString>
        <CharString name="ugrave">
          -36 callsubr
          187 552 -83 callgsubr
          350 -552 rmoveto
          -81 callsubr
        </CharString>
        <CharString name="uhungarumlaut">
          -7 callgsubr
          102.529998779 58 callgsubr
          -30 callsubr
          hintmask 01111100
          310 579 -37 callgsubr
          242 -528 -25 callgsubr
        </CharString>
        <CharString name="umacron">
          -7 callgsubr
          110 55 -30 callsubr
          hintmask 01111100
          441 595 21 callsubr
          96 -540 -25 callgsubr
        </CharString>
        <CharString name="underscore">
          -52 -75 50 hstem
          10 490 vstem
          10 -25 rmoveto
          -50 490 50 vlineto
          endchar
        </CharString>
        <CharString name="uni00AD">
          38 40 callsubr
        </CharString>
        <CharString name="uni00B2">
          -63 callgsubr
        </CharString>
        <CharString name="uni00B3">
          -71 callgsubr
        </CharString>
        <CharString name="uni00B9">
          -20 callsubr
        </CharString>
        <CharString name="uni0122">
          42 callsubr
          hstemhm
          35 165 78 142 46 144 -58 29 hintmask 11110100
          663 276 rmoveto
          -18 callsubr
          hintmask 11110010
          -85 callgsubr
          hintmask 11111100
          53 callsubr
          -317 -285 -97 callsubr
        </CharString>
        <CharString name="uni0123">
          30 callsubr
          77 142 -10 132 -10 48 74 callsubr
          hintmask 1110100010100000
          246 492 6 callsubr
          205 5 61 callgsubr
          hintmask 1111010000100000
          8 callsubr
          hintmask 1111001000100000
          43 callgsubr
          hintmask 1111000100100000
          -5 callgsubr
          hintmask 1110101001000000
          -53 callsubr
          hintmask 1110100010100000
          78 callgsubr
          hintmask 1111010001000000
          -6 callgsubr
          hintmask 1111000100100000
          -26 callsubr
        </CharString>
        <CharString name="uni0136">
          85 -56 callgsubr
          hstemhm
          91 144 46 142 17 180 hintmask 11101000
          623 26 rmoveto
          -24 callsubr
          29 25 207 -300 7 callsubr
          hintmask 11111000
          -274 -62 -97 callsubr
        </CharString>
        <CharString name="uni0137">
          -35 54 callsubr
          hstemhm
          91 132 -4 142 -23 168 hintmask 11110100
          513 26 rmoveto
          -24 callgsubr
          26 26 59 callsubr
          hintmask 11101000
          -226 -62 -97 callsubr
        </CharString>
        <CharString name="uni013B">
          -47 -56 callgsubr
          72 callsubr
          -53 142 154 27 hintmask 11101000
          483 217 -49 callgsubr
          hintmask 11011000
          -257 -253 -97 callsubr
        </CharString>
        <CharString name="uni013C">
          47 callsubr
          hstemhm
          87 142 -133 132 hintmask 11010000
          304 hmoveto
          -30 callgsubr
          hintmask 11100000
          132 -289 -90 callgsubr
        </CharString>
        <CharString name="uni0145">
          32 callgsubr
          124 142 134 42 vstem
          459 600 -82 callsubr
          -317 -636 -97 callsubr
        </CharString>
        <CharString name="uni0146">
          -1 callsubr
          -0.5 142 5 132 hintmask 10110100
          235 26 rmoveto
          -25 hlineto
          1 257 rlineto
          hintmask 11010100
          -16 callgsubr
          58 callsubr
          -10 callgsubr
          4 callsubr
          hintmask 10110100
          -52 callgsubr
          hintmask 10101000
          43 -62 -97 callsubr
        </CharString>
        <CharString name="uni0156">
          55 0 27 247 30 269 27 72 callsubr
          16 142 25.75 126.350006104 hintmask 11110100
          588 26 rmoveto
          -50 callsubr
          44 hlineto
          152 -275 7 callsubr
          -348 547 rmoveto
          62 hlineto
          31 callsubr
          hlineto
          hintmask 11111100
          84 -340 -97 callsubr
        </CharString>
        <CharString name="uni0157">
          17 callsubr
          75 142 -139 72 callgsubr
          hintmask 11001000
          337 438 rmoveto
          -51 -58 -40 -59 -21 hvcurveto
          hintmask 10101000
          -45 callsubr
          hintmask 11001000
          -21 callgsubr
          hintmask 10110000
          -194 -474 -97 callsubr
        </CharString>
        <CharString name="uni015E">
          -20 27 callsubr
          hstemhm
          204 245 -142 112 hintmask 11010000
          15 callsubr
          hintmask 11100000
          -80 callgsubr
          201 -202 rmoveto
          -46 -93 rlineto
          hintmask 11010000
          -59 callsubr
        </CharString>
        <CharString name="uni015F">
          -143 27 callsubr
          76 callgsubr
          -101 112 hintmask 00000000
          hintmask 11100000
          22 callgsubr
          hintmask 11010000
          -67 callsubr
          hintmask 11100000
          -1 callgsubr
          91 -134 rmoveto
          -46 -93 rlineto
          hintmask 11001000
          -59 callsubr
        </CharString>
        <CharString name="uni0162">
          4 27 callsubr
          49 -33 callsubr
          hstemhm
          22 28 161 144 -58 112 107 28 hintmask 11111101
          542 600 -35 callgsubr
          119 hlineto
          -42 -85 rlineto
          hintmask 11111011
          -90 callsubr
          hintmask 11111101
          26 60 rlineto
          185 -31 callsubr
          endchar
        </CharString>
        <CharString name="uni0163">
          -191 27 callsubr
          38 54 callgsubr
          1 112 70 callsubr
          218 -49 rmoveto
          -19 -20 -4 -7 -17 hvcurveto
          24 54 rlineto
          -4 14 16 -1 15 hhcurveto
          79 34 30 85 27 hvcurveto
          -27 5 rlineto
          hintmask 11111000
          57 callsubr
          -42 callgsubr
          -67 32 -35 41 -16 vhcurveto
          -42 -85 rlineto
          hintmask 11110100
          -91 callsubr
          hvcurveto
          endchar
        </CharString>
        <CharString name="uni0218">
          -20 -289 908 hstemhm
          204 245 -231 142 hintmask 10100000
          15 callsubr
          hintmask 11000000
          -80 callgsubr
          hintmask 10100000
          233 -499 -90 callgsubr
        </CharString>
        <CharString name="uni0219">
          -143 -289 740 81 callsubr
          -130 142 -121 53 callgsubr
          22 callgsubr
          hintmask 10010000
          -64 callgsubr
          hintmask 10100000
          123 -431 -90 callgsubr
        </CharString>
        <CharString name="uni021A">
          4 -56 callgsubr
          hstemhm
          22 28 158 142 -139 144 161 28 hintmask 11101100
          542 600 -56 callsubr
          hintmask 11110100
          -270 -422 -97 callsubr
        </CharString>
        <CharString name="uni021B">
          -191 -11 54 callgsubr
          -88 142 hintmask 11100000
          -13 callgsubr
          hintmask 11010000
          -170 -140 -97 callsubr
        </CharString>
        <CharString name="uni02C9">
          36 callsubr
        </CharString>
        <CharString name="uni0326">
          -562 -289 253 hstem
          -321 142 vstem
          -256 -289 -90 callgsubr
        </CharString>
        <CharString name="uni2010">
          -265 187 39 hstem
          43 202 vstem
          43 187 rmoveto
          39 202 -39 vlineto
          endchar
        </CharString>
        <CharString name="uogonek">
          -5 67 callsubr
          52 -42 -15 callsubr
          45 callgsubr
          136 107 -96.5 -7 callsubr
          hintmask 00000000
          hintmask 10111100
          530 -139 -13 callsubr
          hintmask 10111010
          -68 callgsubr
          hintmask 11011010
          -92 callgsubr
          hintmask 10111010
          5 -82 rlineto
          124 hlineto
          hintmask 10111100
          12 callsubr
        </CharString>
        <CharString name="uring">
          -7 callgsubr
          52 78 callsubr
          45 callgsubr
          -46 77 81 77 -42.5 -7 callsubr
          74 callsubr
          hintmask 0111101100000000
          269 482 1 callsubr
          hintmask 0111110010000000
          266 -645 -17 callsubr
          hintmask 1011110010000000
          -92 callgsubr
          hintmask 0111110010000000
          48 callsubr
        </CharString>
        <CharString name="v">
          -87 405 25 hstemhm
          311 162 55 callgsubr
          311 430 rmoveto
          -25 82 vlineto
          -116 -298 -109 298 rlineto
          65 25 -231 -25 39 hlineto
          126 -337 rlineto
          -63 24 6 -10 37 hhcurveto
          36 hlineto
          145 381 rlineto
          23 9 8 6 21 hhcurveto
          18 2 -5 30 hvcurveto
          endchar
        </CharString>
        <CharString name="vertical_stem_upper">
          -338 0 600 hstem
          40 68 callgsubr
          40 hmoveto
          144 600 -144 hlineto
          endchar
        </CharString>
        <CharString name="w">
          148 404 26 hstemhm
          568 142 55 callgsubr
          568 430 rmoveto
          -26 62 vlineto
          -92 -289 -97 289 rlineto
          58 26 -197 hlineto
          36 -104 -64 -210 -96 288 rlineto
          58 26 -231 -26 39 hlineto
          116 -336 rlineto
          -64 22 13 -9 32 hhcurveto
          36 hlineto
          91 284 73 -211 rlineto
          -63 22 5 -10 37 hhcurveto
          36 hlineto
          125 380 rlineto
          23 8 9 6 21 hhcurveto
          16 4 6 20 hvcurveto
          endchar
        </CharString>
        <CharString name="x">
          -80 -15 callgsubr
          hstemhm
          5 157 -157 477 -171 149 hintmask 11010000
          457 26 rmoveto
          -19 hlineto
          -148 219 rlineto
          hintmask 11101000
          100 130 rlineto
          18 14 14 11 25 hhcurveto
          14 3 10 16 hvcurveto
          -149 -26 66 hlineto
          -103 -134 -91 134 rlineto
          57 26 -231 -26 45 hlineto
          137 -204 -118 -145 rlineto
          -20 -16 -12 -9 -20 hhcurveto
          -12 -8 -6 -20 hvcurveto
          157 26 -76 hlineto
          121 150 101 -150 rlineto
          -56 -26 230 hlineto
          hintmask 11010000
          22 -7 4 -18 vhcurveto
          endchar
        </CharString>
        <CharString name="y">
          62 callsubr
          hstemhm
          328 162 hintmask 00000000
          hintmask 11100000
          328 430 -74 callsubr
        </CharString>
        <CharString name="yacute">
          62 callsubr
          hstem
          -2 492 vstem
          368 -86 callgsubr
          -40 -122 -74 callsubr
        </CharString>
        <CharString name="ydieresis">
          62 callsubr
          73 -20 callgsubr
          -14 -73 -74 callsubr
        </CharString>
        <CharString name="z">
          -6 callsubr
          383 170 -79 callgsubr
        </CharString>
        <CharString name="zacute">
          -6 callsubr
          309 -86 callgsubr
          74 -382 -79 callgsubr
        </CharString>
        <CharString name="zcaron">
          -6 callsubr
          211 -78 callgsubr
          172 -331 -79 callgsubr
        </CharString>
        <CharString name="zdotaccent">
          -143 75 callsubr
          18 callgsubr
          75 149 99 25 vstem
          209 -54 callsubr
          174 -318 -79 callgsubr
        </CharString>
        <CharString name="zero">
          62 19 callgsubr
          hstem
          35 162 230 162 vstem
          589 298 rmoveto
          205 -115 107 -158 -160 -121 -113 -195 -200 116 -112 160 159 119 113 195 vhcurveto
          -162 5 rmoveto
          -205 -20 -81 -93 -93 -24 71 210 200 23 85 93 91 23 -83 -197 vhcurveto
          endchar
        </CharString>
      <CharString index="0">
        rmoveto
        -107 callsubr
        15 -22 rcurveline
        76 36 77 12 32 23 rrcurveto
        return
      </CharString>
      <CharString index="1">
        -99 callgsubr
        -86 callsubr
        return
      </CharString>
      <CharString index="2">
        -103 callgsubr
        -170 -3 -83 -46 -87 vvcurveto
        return
      </CharString>
      <CharString index="3">
        rmoveto
        -97 callgsubr
        hintmask 01111110
        -52 callsubr
        hintmask 10111110
        -61 callsubr
        hintmask 01111110
        -89 callsubr
      </CharString>
      <CharString index="4">
        -16 -6 18 33 hvcurveto
        209 vlineto
        117 -82 44 -99 -119 -61 -39 -52 -32 24 -20 32 vhcurveto
        96 -53 118 74 hhcurveto
        41 15 -36 -72 hvcurveto
        -65 vlineto
        return
      </CharString>
      <CharString index="5">
        rmoveto
        -98 callgsubr
        273 -73 callgsubr
        return
      </CharString>
      <CharString index="6">
        rmoveto
        6 callgsubr
        -75 callgsubr
        vhcurveto
        -232 -208 -83 callsubr
        endchar
      </CharString>
      <CharString index="7">
        rmoveto
        -74 callgsubr
        hvcurveto
        -94 callgsubr
        vhcurveto
        return
      </CharString>
      <CharString index="8">
        rmoveto
        -104 callsubr
        -2 callgsubr
        return
      </CharString>
      <CharString index="9">
        -32 hlineto
        -234 573 rlineto
        -79 hlineto
        -219 -573 -93 callsubr
        return
      </CharString>
      <CharString index="10">
        -9 callsubr
        -105 callgsubr
        return
      </CharString>
      <CharString index="11">
        -101 callsubr
        endchar
      </CharString>
      <CharString index="12">
        -106 -88 callsubr
        -4 32 callsubr
        -498 -46 callgsubr
        return
      </CharString>
      <CharString index="13">
        -87 callgsubr
        21 -16 rlineto
        -80 callsubr
        return
      </CharString>
      <CharString index="14">
        rmoveto
        -76 callgsubr
        -87 callgsubr
        return
      </CharString>
      <CharString index="15">
        -73 -7 -41 -37 -34 hhcurveto
        -34 -30 27 67 hvcurveto
        294 46 callgsubr
        -251 vlineto
        -119 66 -44 72 61 55 39 53 27 vhcurveto
        return
      </CharString>
      <CharString index="16">
        682 -107 callgsubr
        return
      </CharString>
      <CharString index="17">
        -93 callgsubr
        endchar
      </CharString>
      <CharString index="18">
        631 -105 callsubr
        return
      </CharString>
      <CharString index="19">
        rmoveto
        76 36 77 12 32 23 rrcurveto
        -107 callsubr
        rrcurveto
        return
      </CharString>
      <CharString index="20">
        19 -4 7 -7 -14 vvcurveto
        -17 -15 -30 -24 -25 vhcurveto
        return
      </CharString>
      <CharString index="21">
        552 -107 callgsubr
        return
      </CharString>
      <CharString index="22">
        -79 callsubr
        -219 156 -92 152 51 51 10 20 44 hvcurveto
        return
      </CharString>
      <CharString index="23">
        83 -84 -8 49 -48 hhcurveto
        -47 -11 -49 -83 -80 hvcurveto
        14 -19 53 29 43 17 30 12 rlinecurve
        return
      </CharString>
      <CharString index="24">
        rmoveto
        32 -23 77 -12 76 -36 15 22 rcurveline
        -80 69 -21 46 -34 25 rrcurveto
        -75 callsubr
        return
      </CharString>
      <CharString index="25">
        38 -9 callgsubr
        -38 -36 -30 -30 -38 -37 30 -29 36 hvcurveto
        return
      </CharString>
      <CharString index="26">
        rmoveto
        -10 callgsubr
        hintmask 11011000
        4 callsubr
        hintmask 10111000
        -49 callsubr
        hintmask 11011000
        -16 callgsubr
        hintmask 10111000
        58 callsubr
        endchar
      </CharString>
      <CharString index="27">
        65 65 -14 -29 54 hvcurveto
        35 5 13 25 vhcurveto
        -194 -29 vlineto
        108 2 -84 51 -65 hhcurveto
        -54 -44 -32 -54 hvcurveto
        -148 308 9 -192 vvcurveto
        -121 -119 -56 -123 -66 -70 15 36 -54 vhcurveto
        -36 -2 -7 -28 vhcurveto
        212 vlineto
        return
      </CharString>
      <CharString index="28">
        rmoveto
        -24 -79 rlineto
        -36 -11 -20 -29 -50 hhcurveto
        -126 hlineto
        256 383 rlineto
        21 -366 vlineto
        -7 -149 rlineto
        25 hlineto
        38 74 rlineto
        33 17 19 16 30 hhcurveto
        115 hlineto
        -267 -382 rlineto
        -22 395 vlineto
        2 170 rlineto
        endchar
      </CharString>
      <CharString index="29">
        501 -105 callsubr
        return
      </CharString>
      <CharString index="30">
        631 -102 callsubr
        return
      </CharString>
      <CharString index="31">
        -80 callsubr
        -74 callgsubr
        vhcurveto
        return
      </CharString>
      <CharString index="32">
        -140 -95 -94 -130 -130 91 -101 135 140 95 103 130 return
      </CharString>
      <CharString index="33">
        -38 -30 -32 -39 -38 28 -25 29 -6 return
      </CharString>
      <CharString index="34">
        hlineto
        -73 callsubr
        return
      </CharString>
      <CharString index="35">
        rmoveto
        72 38 74 16 30 24 -55 callsubr
        rrcurveto
        188 -16 -69 callsubr
        return
      </CharString>
      <CharString index="36">
        -23 -10 27 291 33 164 98 hstemhm
        37 130.229995728 -97.2299957275 24 267 138 hintmask 11101100
        297 341 rmoveto
        -20 -21 -2 -4 -21 hvcurveto
        239 238 rlineto
        30 -403 vlineto
        49 callsubr
        43 17 20 2 41 hhcurveto
        161 hlineto
        -183 -190 26 -21 rlineto
        10 24 24 4 19 hhcurveto
        68 32 -62 -67 -78 -49 -81 -85 -3 hvcurveto
        hintmask 11110100
        6 -118 119 159 -125 hhcurveto
        -43 -23 -28 -36 -57 60 -71 135 182 85 96 92 hvcurveto
        hintmask 11101100
        89 -70 74 -132 vhcurveto
        endchar
      </CharString>
      <CharString index="37">
        481 -88 callgsubr
        return
      </CharString>
      <CharString index="38">
        rmoveto
        152 -275 7 callsubr
        -50 callsubr
        hlineto
        62 299 rmoveto
        31 callsubr
        269 hlineto
        endchar
      </CharString>
      <CharString index="39">
        -21 callsubr
        -34 404 -181 -26 49 hlineto
        -1 -252 rlineto
        return
      </CharString>
      <CharString index="40">
        rmoveto
        -51 -58 -40 -59 -21 hvcurveto
        hintmask 10110000
        -45 callsubr
        hintmask 11010000
        -21 callgsubr
        endchar
      </CharString>
      <CharString index="41">
        501 -102 callsubr
        return
      </CharString>
      <CharString index="42">
        -27 callgsubr
        -22 callgsubr
        return
      </CharString>
      <CharString index="43">
        -67 callsubr
        hintmask 11000000
        -1 callgsubr
        return
      </CharString>
      <CharString index="44">
        -37 0 98 485 27 hstemhm
        25 62 -58 135.270004272 153.729995728 142 -15 24 hintmask 00000000
        hintmask 11100100
        445 189 rmoveto
        -18 -46 rlineto
        -43 -17 -20 -2 -41 hhcurveto
        -262 hlineto
        hintmask 11101000
        112 373 47 198 vvcurveto
        114 -111 41 -110 vhcurveto
        hintmask 11011000
        -106 -104 -48 -81 -32 23 -30 44 hvcurveto
        126 -114 164 122 hhcurveto
        61 27 -52 -67 hvcurveto
        hintmask 11101000
        -213 -293 -14 -207 vvcurveto
        -30 vlineto
        hintmask 11100100
        443 hlineto
        2 189 rlineto
        endchar
      </CharString>
      <CharString index="45">
        -41 callsubr
        -20 -10 -38 vhcurveto
        -26 return
      </CharString>
      <CharString index="46">
        39 32 30 40 39 -32 32 -39 -39 -31 -32 -39 -40 31 -30 39 hvcurveto
        return
      </CharString>
      <CharString index="47">
        682 -83 callgsubr
        return
      </CharString>
      <CharString index="48">
        -93 -10 -58 callgsubr
        return
      </CharString>
      <CharString index="49">
        29 202.5 -28 callgsubr
        return
      </CharString>
      <CharString index="50">
        rmoveto
        42 44 31 64 53 vvcurveto
        45 -24 35 -46 -37 -28 -31 -37 -5 callsubr
        -16 -14 -28 -23 -24 vhcurveto
        return
      </CharString>
      <CharString index="51">
        0 -33 callsubr
        return
      </CharString>
      <CharString index="52">
        -59 callgsubr
        7 callgsubr
        return
      </CharString>
      <CharString index="53">
        -103 -55 71 210 -34 callsubr
        return
      </CharString>
      <CharString index="54">
        22 -77 callsubr
        return
      </CharString>
      <CharString index="55">
        -5 78 -29 callgsubr
        239 -33 callgsubr
        return
      </CharString>
      <CharString index="56">
        -56 callgsubr
        hstem
        return
      </CharString>
      <CharString index="57">
        rmoveto
        27 -278 -27 67 -546 -67 -18 callgsubr
        -43 546 hlineto
        endchar
      </CharString>
      <CharString index="58">
        4 callgsubr
        546 58 27 -278 -46 callgsubr
        488 hlineto
        4 217 rlineto
        return
      </CharString>
      <CharString index="59">
        -47 callsubr
        -4 callgsubr
        hintmask 10111110
        return
      </CharString>
      <CharString index="60">
        -103 -98 -57 -150 hvcurveto
        -13 -81 -26 81 -326 vlineto
        5 callgsubr
        298 -33 callgsubr
        -66 378 108 26 -108 5 hlineto
        145 11 47 38 vhcurveto
        return
      </CharString>
      <CharString index="61">
        -27 20 callsubr
        -76 -27 return
      </CharString>
      <CharString index="62">
        rmoveto
        -117 8 66 -74 103 hhcurveto
        71 39 40 64 hvcurveto
        142 -316 -6 193 vvcurveto
        111 101 51 109 vhcurveto
        return
      </CharString>
      <CharString index="63">
        5 callsubr
        -25 callsubr
        return
      </CharString>
      <CharString index="64">
        rmoveto
        98 32 71 68 hvcurveto
        -21 hlineto
        -49 -10 -47 -7 -49 hhcurveto
        -48 -56 9 47 -10 hvcurveto
        -20 hlineto
        -68 34 -71 97 vhcurveto
        return
      </CharString>
      <CharString index="65">
        -30 -17 25 52 hvcurveto
        303 147 26 -147 116 vlineto
        -132 -21 rlineto
        -95 -69 -26 69 -281 vlineto
        return
      </CharString>
      <CharString index="66">
        vvcurveto
        -50 53 -24 55 38 38 12 24 22 vhcurveto
        return
      </CharString>
      <CharString index="67">
        -57 callgsubr
        hintmask 11100000
        181 -15 -57 callgsubr
        endchar
      </CharString>
      <CharString index="68">
        rmoveto
        86 230 89 -230 rlineto
        endchar
      </CharString>
      <CharString index="69">
        rmoveto
        56 callgsubr
        -30 hlineto
        -68 callsubr
        endchar
      </CharString>
      <CharString index="70">
        rmoveto
        -55 callsubr
        15 -20 rcurveline
        72 38 74 16 30 24 rrcurveto
        -3 -74 -69 callsubr
        return
      </CharString>
      <CharString index="71">
        rmoveto
        79 6 36 51 52 57 45 -62 47 hhcurveto
        30 17 23 32 8 hvcurveto
        21 -3 rlineto
        -79 -6 -37 -51 -52 -57 -45 62 -44 hhcurveto
        -33 -17 -23 -32 -8 hvcurveto
        return
      </CharString>
      <CharString index="72">
        rmoveto
        -518 hlineto
        -4 -214 rlineto
        30 hlineto
        31 90 rlineto
        49 17 22 48 76 hhcurveto
        15 -546 -93 -27 return
      </CharString>
      <CharString index="73">
        rmoveto
        -61 callgsubr
        return
      </CharString>
      <CharString index="74">
        vlineto
        -53 callgsubr
        return
      </CharString>
      <CharString index="75">
        rmoveto
        -93 68 -17 47 59 14 27 30 vhcurveto
        122 -229 -27 147 vvcurveto
        88 83 40 97 vhcurveto
        return
      </CharString>
      <CharString index="76">
        -12 callgsubr
        -8 callsubr
        return
      </CharString>
      <CharString index="77">
        10 callgsubr
        -26 20 callsubr
        hlineto
        5 callgsubr
        vlineto
        return
      </CharString>
      <CharString index="78">
        rlineto
        -183 -41 callsubr
        -23 -10 -35 vhcurveto
        -26 return
      </CharString>
      <CharString index="79">
        26.5 172 25 return
      </CharString>
      <CharString index="80">
        -165 -155 -113 -195 return
      </CharString>
      <CharString index="81">
        rmoveto
        47 callgsubr
        -156 104 -70 126 56 callsubr
        -25 7 rlineto
        -31 callgsubr
        hvcurveto
        endchar
      </CharString>
      <CharString index="82">
        -17 callsubr
        hintmask 10111100
        -92 callgsubr
        hintmask 01111100
        48 callsubr
      </CharString>
      <CharString index="83">
        -15 hlineto
        -161 269 73 71 rlineto
        22 23 18 16 23 hhcurveto
        30 2 1 25 hvcurveto
        -168 -26 73 hlineto
        -188 -179 rlineto
        425 -208 -26 20 callsubr
        20 callgsubr
        -52 159 hlineto
        return
      </CharString>
      <CharString index="84">
        44 45 -62 57 hhcurveto
        52 37 51 79 6 hvcurveto
        -21 3 rlineto
        -32 -8 -17 -23 -30 hhcurveto
        return
      </CharString>
      <CharString index="85">
        -200 152 -112 165 return
      </CharString>
      <CharString index="86">
        104 6 35 25 18 25 -5 -66 65 hhcurveto
        40 25 33 32 33 -25 33 -57 hvcurveto
        return
      </CharString>
      <CharString index="87">
        134 hstem
        89 28 callgsubr
        vstem
        157 503 -102 callsubr
        return
      </CharString>
      <CharString index="88">
        rmoveto
        -47 -18 -25 -49 -76 hhcurveto
        return
      </CharString>
      <CharString index="89">
        -27 278 vlineto
        -73 callsubr
        return
      </CharString>
      <CharString index="90">
        rmoveto
        27 callgsubr
        26 callsubr
        hvcurveto
        return
      </CharString>
      <CharString index="91">
        73 7 41 37 34 hhcurveto
        34 30 -27 -67 hvcurveto
        -221 vlineto
        return
      </CharString>
      <CharString index="92">
        0 -15 callsubr
        return
      </CharString>
      <CharString index="93">
        rmoveto
        -284 -27 67 -546 -38 callsubr
        546 2 callgsubr
      </CharString>
      <CharString index="94">
        344 109 rmoveto
        57 callsubr
        -37 callsubr
        return
      </CharString>
      <CharString index="95">
        -47 -23 -56 -43 -69 hhcurveto
        -63 -41 38 155 156 29 53 57 hvcurveto
        return
      </CharString>
      <CharString index="96">
        -42 callsubr
        -20 -15 15 35 return
      </CharString>
      <CharString index="97">
        -26 236 -4 callsubr
        return
      </CharString>
      <CharString index="98">
        30 callgsubr
        38 -31 30 return
      </CharString>
      <CharString index="99">
        rmoveto
        -54 -33 66 117 24 callsubr
        -127 -39 -75 -58 hvcurveto
        endchar
      </CharString>
      <CharString index="100">
        -5 -10 52 -42 -15 callsubr
        return
      </CharString>
      <CharString index="101">
        -213 -369 rmoveto
        -59 -4 55 93 96 8 53 56 59 6 -53 -93 -96 -9 -55 -57 hvcurveto
        return
      </CharString>
      <CharString index="102">
        -16 -20 -9 -20 -20 vvcurveto
        -53 61 -46 126 163 64 63 64 78 -49 39 -88 2 vhcurveto
        return
      </CharString>
      <CharString index="103">
        29 callsubr
        118 44 callsubr
        return
      </CharString>
      <CharString index="104">
        205 -149 107 -165 return
      </CharString>
      <CharString index="105">
        -48 -22 -50 -44 -65 hhcurveto
        return
      </CharString>
      <CharString index="106">
        -49 -56 9 22 -43 hvcurveto
        -26 -5 -5 -22 vhcurveto
        152 40 vlineto
        return
      </CharString>
      <CharString index="107">
        -46 625 -218 -25 86 -222 hlineto
        34 callgsubr
        hintmask 10111100
        38 callgsubr
        hintmask 01111100
        14 -94 rlineto
        return
      </CharString>
      <CharString index="108">
        -107 -10 28 402 25 hstem
        28 142 141.570007324 130.429992676 vstem
        return
      </CharString>
      <CharString index="109">
        76 hlineto
        103 52 -73 80 callgsubr
        -54 -71 -103 hvcurveto
        endchar
      </CharString>
      <CharString index="110">
        -47 -45 62 -57 hhcurveto
        -52 -36 -51 -79 -6 hvcurveto
        20 -3 rlineto
        return
      </CharString>
      <CharString index="111">
        rmoveto
        -34 -94 rlineto
        -49 -18 -19 -47 -76 hhcurveto
        -96 return
      </CharString>
      <CharString index="112">
        -42 -34 -10 -42 vhcurveto
        -26 return
      </CharString>
      <CharString index="113">
        125 -86 97 -140 return
      </CharString>
      <CharString index="114">
        hstem
        23 16 callgsubr
        vstem
        return
      </CharString>
      <CharString index="115">
        1 rlineto
        -21 callsubr
        return
      </CharString>
      <CharString index="116">
        -10 callsubr
        -546 -66 -18 callgsubr
        -44 return
      </CharString>
      <CharString index="117">
        43 callsubr
        624 -208 return
      </CharString>
      <CharString index="118">
        -15 -18 -18 -8 -16 hhcurveto
        return
      </CharString>
      <CharString index="119">
        rmoveto
        -42 -44 -31 -64 -53 vvcurveto
        -45 24 -35 46 37 28 31 37 36 -26 24 -28 6 vhcurveto
        -18 4 -7 6 14 vvcurveto
        16 14 28 23 24 vhcurveto
        return
      </CharString>
      <CharString index="120">
        14 callgsubr
        hstem
        78 64 callsubr
        return
      </CharString>
      <CharString index="121">
        -279 -15 callgsubr
        return
      </CharString>
      <CharString index="122">
        -11 callgsubr
        28 callsubr
        hvcurveto
        -1 return
      </CharString>
      <CharString index="123">
        142 143 137 return
      </CharString>
      <CharString index="124">
        27 35 callsubr
        return
      </CharString>
      <CharString index="125">
        hstem
        38.5 21.5 return
      </CharString>
      <CharString index="126">
        -10 27 566 27 return
      </CharString>
      <CharString index="127">
        vlineto
        5 callgsubr
        284 -33 callgsubr
        return
      </CharString>
      <CharString index="128">
        rmoveto
        -65 callsubr
        248 76 callsubr
      </CharString>
      <CharString index="129">
        81 128 -32 callgsubr
        return
      </CharString>
      <CharString index="130">
        56 -9 39 callgsubr
        352 29 vstem
        return
      </CharString>
      <CharString index="131">
        16 callsubr
        26 callgsubr
        return
      </CharString>
      <CharString index="132">
        65 callsubr
        183.75 return
      </CharString>
      <CharString index="133">
        59 callgsubr
        291 37 vstem
        return
      </CharString>
      <CharString index="134">
        35 6 -36 -32 -34 -8 -37 -33 return
      </CharString>
      <CharString index="135">
        135 52 135 return
      </CharString>
      <CharString index="136">
        30 249 27 return
      </CharString>
      <CharString index="137">
        31 29 37 return
      </CharString>
      <CharString index="138">
        -278 55 callsubr
        278 -73 callgsubr
        -43 546 67 hlineto
        endchar
      </CharString>
      <CharString index="139">
        106 -51 callgsubr
        97 42 return
      </CharString>
      <CharString index="140">
        30 -25 13 -30 -31 -26 -14 -31 -43 29 -54 12 -87 vhcurveto
        30 hlineto
        12 87 29 57 42 vvcurveto
        return
      </CharString>
      <CharString index="141">
        29 -33 -42 14 -42 hhcurveto
        -105 -102 -80 -159 hvcurveto
        return
      </CharString>
      <CharString index="142">
        96 144 return
      </CharString>
      <CharString index="143">
        445 rmoveto
        -39 -32 -30 -40 -39 32 -32 39 39 31 32 39 40 -31 30 -39 hvcurveto
        return
      </CharString>
      <CharString index="144">
        241 29 callsubr
        26 135 hintmask 11000000
        return
      </CharString>
      <CharString index="145">
        -141 90 -76 93 60 57 33 71 28 vhcurveto
        return
      </CharString>
      <CharString index="146">
        30 558 31 hstem
        35 165 return
      </CharString>
      <CharString index="147">
        69 callsubr
        309 82 callsubr
        -284 -27 67 return
      </CharString>
      <CharString index="148">
        -10 46 -36 25 388 33 179 51 callgsubr
        return
      </CharString>
      <CharString index="149">
        -27 -31 rrcurveto
        -10 33 callsubr
        25 -28 return
      </CharString>
      <CharString index="150">
        -60 -30 -47 -44 -27 12 -31 24 -21 hvcurveto
        return
      </CharString>
      <CharString index="151">
        rmoveto
        -55 320 55 vlineto
        return
      </CharString>
      <CharString index="152">
        hstemhm
        68 132 return
      </CharString>
      <CharString index="153">
        -190 -26 58 return
      </CharString>
      <CharString index="154">
        -112 -119 -70 -159 return
      </CharString>
      <CharString index="155">
        0 26 367 52 return
      </CharString>
      <CharString index="156">
        70 callgsubr
        28 callsubr
        hvcurveto
        return
      </CharString>
      <CharString index="157">
        -15 -23 callsubr
        return
      </CharString>
      <CharString index="158">
        25 hstemhm
        64 callgsubr
        182 132 return
      </CharString>
      <CharString index="159">
        26 -51 callgsubr
        225.5 68 callgsubr
        return
      </CharString>
      <CharString index="160">
        169 55 callgsubr
        return
      </CharString>
      <CharString index="161">
        30 380 26 hstemhm
        89 132 return
      </CharString>
      <CharString index="162">
        hintmask 00000000
        hintmask 11000000
        return
      </CharString>
      <CharString index="163">
        90 -26 6 212 rlineto
        return
      </CharString>
      <CharString index="164">
        32 8 17 23 33 hhcurveto
        return
      </CharString>
      <CharString index="165">
        124.470001221 return
      </CharString>
      <CharString index="166">
        hstem
        91 144 return
      </CharString>
      <CharString index="167">
        32 callgsubr
        400 42 vstem
        return
      </CharString>
      <CharString index="168">
        rmoveto
        -40 -34 -32 -50 -16 hvcurveto
        return
      </CharString>
      <CharString index="169">
        -69 -31 -58 20 -18 rcurveline
        59 return
      </CharString>
      <CharString index="170">
        vlineto
        73 callgsubr
        return
      </CharString>
      <CharString index="171">
        30 142 return
      </CharString>
      <CharString index="172">
        hlineto
        -26 -202 rlineto
        40 hlineto
        26 202 rlineto
        return
      </CharString>
      <CharString index="173">
        hstem
        5 652 vstem
        return
      </CharString>
      <CharString index="174">
        14 381 hstem
        15 return
      </CharString>
      <CharString index="175">
        144 vstem
        return
      </CharString>
      <CharString index="176">
        24 182 rlineto
        -40 hlineto
        -24 -182 rlineto
        return
      </CharString>
      <CharString index="177">
        11 callgsubr
        45 callsubr
        return
      </CharString>
      <CharString index="178">
        -21 -17 rcurveline
        32 -60 28 return
      </CharString>
      <CharString index="179">
        132 hintmask 00000000
        return
      </CharString>
      <CharString index="180">
        22 -5 4 return
      </CharString>
      <CharString index="181">
        -28 callgsubr
        hstemhm
        return
      </CharString>
      <CharString index="182">
        134 hstemhm
        return
      </CharString>
      <CharString index="183">
        81 callsubr
        -109 169 return
      </CharString>
      <CharString index="184">
        142 hintmask 00000000
        return
      </CharString>
      <CharString index="185">
        27 -22 31 -48 vhcurveto
        return
      </CharString>
      <CharString index="186">
        30 553 27 return
      </CharString>
      <CharString index="187">
        -197 -205 return
      </CharString>
      <CharString index="188">
        -53 38 -42 77 return
      </CharString>
      <CharString index="189">
        148 hstemhm
        return
      </CharString>
</ttFont>
